<?xml version="1.0" standalone="no"?>
<!DOCTYPE svg PUBLIC "-//W3C//DTD SVG 20010904//EN"
 "http://www.w3.org/TR/2001/REC-SVG-20010904/DTD/svg10.dtd">
<svg version="1.0" xmlns="http://www.w3.org/2000/svg"
 width="260.000000pt" height="260.000000pt" viewBox="0 0 260.000000 260.000000"
 preserveAspectRatio="xMidYMid meet">
<metadata>
Created by potrace 1.11, written by Peter Selinger 2001-2013
</metadata>
<g transform="translate(0.000000,260.000000) scale(0.100000,-0.100000)"
fill="#000000" stroke="none">
<path d="M707 1325 c-323 -646 -587 -1177 -587 -1180 0 -3 531 -5 1180 -5 649
0 1180 2 1180 5 0 10 -1175 2355 -1180 2355 -3 0 -269 -529 -593 -1175z m1121
-50 c287 -575 522 -1047 522 -1050 0 -3 -472 -5 -1050 -5 -577 0 -1050 2
-1050 5 0 10 1045 2095 1050 2095 3 0 240 -470 528 -1045z"/>
</g>
</svg>
