<svg xmlns="http://www.w3.org/2000/svg" xmlns:xlink="http://www.w3.org/1999/xlink" version="1.1" x="0px" y="0px" viewBox="0 0 60 75" enable-background="new 0 0 60 60" xml:space="preserve"><path d="M46.7900391,52.0004883H33c-0.5527344,0-1-0.4472656-1-1s0.4472656-1,1-1h13.7900391c0.5527344,0,1,0.4472656,1,1  S47.3427734,52.0004883,46.7900391,52.0004883z"/><path d="M27,52.0004883H13.2099609c-0.5527344,0-1-0.4472656-1-1s0.4472656-1,1-1H27c0.5527344,0,1,0.4472656,1,1  S27.5527344,52.0004883,27,52.0004883z"/><path d="M30.0048828,54.9995117c-0.9267578,0-1.8261719-0.3173828-2.5498047-0.9140625  C26.5302734,53.3217773,26,52.1977539,26,51.0004883c0-2.2060547,1.7939453-4,4-4  c1.1767578,0,2.2880859,0.5126953,3.0488281,1.4072266s1.0878906,2.0820313,0.8974609,3.2578125  c-0.2607422,1.609375-1.5615234,2.9501953-3.1630859,3.2587891C30.5234375,54.9750977,30.2636719,54.9995117,30.0048828,54.9995117z   M30,49.0004883c-1.1025391,0-2,0.8974609-2,2c0,0.5976563,0.265625,1.1601563,0.7285156,1.5419922  c0.4697266,0.3876953,1.0683594,0.5361328,1.6757813,0.4189453c0.78125-0.1513672,1.4404297-0.8310547,1.5673828-1.6162109l0,0  c0.0986328-0.6044922-0.0605469-1.1875-0.4462891-1.6416016C31.1455078,49.2563477,30.5888672,49.0004883,30,49.0004883z"/><path d="M30,49.0004883c-0.5527344,0-1-0.4472656-1-1v-7.5839844c0-0.5527344,0.4472656-1,1-1s1,0.4472656,1,1v7.5839844  C31,48.5532227,30.5527344,49.0004883,30,49.0004883z"/><path d="M51.3984375,41.4165039H8.6025391C6.6162109,41.4165039,5,39.8012695,5,37.8149414v-6.2685547  c0-1.9863281,1.6162109-3.6015625,3.6025391-3.6015625h42.7958984C53.3847656,27.9448242,55,29.5600586,55,31.5463867v6.2685547  C55,39.8012695,53.3847656,41.4165039,51.3984375,41.4165039z M8.6025391,29.9448242C7.71875,29.9448242,7,30.6635742,7,31.5463867  v6.2685547c0,0.8828125,0.71875,1.6015625,1.6025391,1.6015625h42.7958984C52.28125,39.4165039,53,38.6977539,53,37.8149414  v-6.2685547c0-0.8828125-0.71875-1.6015625-1.6015625-1.6015625H8.6025391z"/><path d="M47.4365234,35.6811523h-26.5625c-0.5527344,0-1-0.4472656-1-1s0.4472656-1,1-1h26.5625c0.5527344,0,1,0.4472656,1,1  S47.9892578,35.6811523,47.4365234,35.6811523z"/><path d="M14.5644531,37.6811523c-1.6542969,0-3-1.3457031-3-3s1.3457031-3,3-3s3,1.3457031,3,3  S16.21875,37.6811523,14.5644531,37.6811523z M14.5644531,33.6811523c-0.5517578,0-1,0.4482422-1,1s0.4482422,1,1,1s1-0.4482422,1-1  S15.1162109,33.6811523,14.5644531,33.6811523z"/><path d="M51.3984375,29.9448242H8.6025391C6.6162109,29.9448242,5,28.3295898,5,26.3432617V20.074707  c0-1.9863281,1.6162109-3.6025391,3.6025391-3.6025391h42.7958984C53.3847656,16.472168,55,18.0883789,55,20.074707v6.2685547  C55,28.3295898,53.3847656,29.9448242,51.3984375,29.9448242z M8.6025391,18.472168C7.71875,18.472168,7,19.190918,7,20.074707  v6.2685547c0,0.8828125,0.71875,1.6015625,1.6025391,1.6015625h42.7958984C52.28125,27.9448242,53,27.2260742,53,26.3432617  V20.074707c0-0.8837891-0.71875-1.6025391-1.6015625-1.6025391H8.6025391z"/><path d="M39.1269531,24.2084961h-26.5625c-0.5527344,0-1-0.4472656-1-1s0.4472656-1,1-1h26.5625c0.5527344,0,1,0.4472656,1,1  S39.6796875,24.2084961,39.1269531,24.2084961z"/><path d="M45.4365234,26.2084961c-1.6542969,0-3-1.3457031-3-3s1.3457031-3,3-3s3,1.3457031,3,3  S47.0908203,26.2084961,45.4365234,26.2084961z M45.4365234,22.2084961c-0.5517578,0-1,0.4482422-1,1s0.4482422,1,1,1  s1-0.4482422,1-1S45.9882813,22.2084961,45.4365234,22.2084961z"/><path d="M51.3984375,18.472168H8.6025391C6.6162109,18.472168,5,16.8569336,5,14.8706055V8.6020508  c0-1.9863281,1.6162109-3.6015625,3.6025391-3.6015625h42.7958984C53.3847656,5.0004883,55,6.6157227,55,8.6020508v6.2685547  C55,16.8569336,53.3847656,18.472168,51.3984375,18.472168z M8.6025391,7.0004883C7.71875,7.0004883,7,7.7192383,7,8.6020508  v6.2685547c0,0.8828125,0.71875,1.6015625,1.6025391,1.6015625h42.7958984C52.28125,16.472168,53,15.753418,53,14.8706055V8.6020508  c0-0.8828125-0.71875-1.6015625-1.6015625-1.6015625H8.6025391z"/><path d="M47.4365234,12.7368164h-26.5625c-0.5527344,0-1-0.4472656-1-1s0.4472656-1,1-1h26.5625c0.5527344,0,1,0.4472656,1,1  S47.9892578,12.7368164,47.4365234,12.7368164z"/><path d="M14.5644531,14.7368164c-1.6542969,0-3-1.3457031-3-3s1.3457031-3,3-3s3,1.3457031,3,3  S16.21875,14.7368164,14.5644531,14.7368164z M14.5644531,10.7368164c-0.5517578,0-1,0.4482422-1,1s0.4482422,1,1,1s1-0.4482422,1-1  S15.1162109,10.7368164,14.5644531,10.7368164z"/><text x="0" y="75" fill="#000000" font-size="5px" font-weight="bold" font-family="'Helvetica Neue', Helvetica, Arial-Unicode, Arial, Sans-serif">Created by Dinosoft Labs</text><text x="0" y="80" fill="#000000" font-size="5px" font-weight="bold" font-family="'Helvetica Neue', Helvetica, Arial-Unicode, Arial, Sans-serif">from the Noun Project</text></svg>