<svg xmlns="http://www.w3.org/2000/svg" xmlns:xlink="http://www.w3.org/1999/xlink" version="1.1" x="0px" y="0px" viewBox="0 0 100 125" enable-background="new 0 0 100 100" xml:space="preserve"><path d="M68.938,42.531c-0.672,0-1.217,0.545-1.217,1.216v10.492h-2.756V29.124c0-7.287-5.928-13.216-13.215-13.216h-3  c-7.287,0-13.215,5.929-13.215,13.216v25.116h-2.756V43.748c0-0.671-0.545-1.216-1.217-1.216c-0.67,0-1.215,0.545-1.215,1.216v14.75  c0,8.94,7.998,16.215,17.826,16.215h0.621v5.575c0,0.095,0.01,0.188,0.027,0.279l0.068,0.339h-8.547  c-0.844,0-1.506,0.606-1.506,1.381c0,0.775,0.662,1.384,1.506,1.384h19.67c0.844,0,1.504-0.608,1.504-1.384  c0-0.774-0.66-1.381-1.504-1.381h-8.555l0.074-0.344c0.018-0.086,0.027-0.18,0.027-0.274v-5.575h0.766  c9.83,0,17.826-7.274,17.826-16.215v-14.75C70.152,43.077,69.607,42.531,68.938,42.531z M48.795,72.28h-0.621  c-8.488,0-15.395-6.184-15.395-13.783v-0.992h2.836l0.031,0.248c0.805,6.482,6.336,11.457,12.869,11.572l0.279,0.004V72.28z   M48.75,66.905c-5.947,0-10.783-4.838-10.783-10.783v-8.044h7.02c0.828,0,1.5-0.671,1.5-1.5s-0.672-1.5-1.5-1.5h-7.02v-4.573h7.02  c0.828,0,1.5-0.671,1.5-1.5s-0.672-1.5-1.5-1.5h-7.02v-4.574h7.02c0.828,0,1.5-0.671,1.5-1.5s-0.672-1.5-1.5-1.5h-7.02v-0.807  c0-5.946,4.836-10.784,10.783-10.784h3c5.945,0,10.783,4.838,10.783,10.784v0.807h-7.018c-0.828,0-1.5,0.671-1.5,1.5  s0.672,1.5,1.5,1.5h7.018v4.574h-7.018c-0.828,0-1.5,0.671-1.5,1.5s0.672,1.5,1.5,1.5h7.018v4.573h-7.018  c-0.828,0-1.5,0.671-1.5,1.5s0.672,1.5,1.5,1.5h7.018v8.044c0,5.945-4.838,10.783-10.783,10.783H48.75z M67.721,58.497  c0,7.6-6.906,13.783-15.395,13.783h-0.766v-2.946l0.281-0.002c6.605-0.046,12.199-5.023,13.012-11.579l0.031-0.248h2.836V58.497z"/><text x="0" y="115" fill="#000000" font-size="5px" font-weight="bold" font-family="'Helvetica Neue', Helvetica, Arial-Unicode, Arial, Sans-serif">Created by Kaylen Yul Lee</text><text x="0" y="120" fill="#000000" font-size="5px" font-weight="bold" font-family="'Helvetica Neue', Helvetica, Arial-Unicode, Arial, Sans-serif">from the Noun Project</text></svg>