<svg xmlns="http://www.w3.org/2000/svg" xmlns:xlink="http://www.w3.org/1999/xlink" version="1.1" x="0px" y="0px" viewBox="0 0 100 125" enable-background="new 0 0 100 100" xml:space="preserve"><g><path d="M89.277,5.009c-7.818,0.456-21.892,1.796-28.32,5.658c-8.26,4.963-16.411,14.28-22.987,23.224l-13.117,1.715   c-2.531,0.331-4.734,1.992-5.749,4.334l-3.076,7.099c-0.244,0.562-0.216,1.204,0.074,1.742c0.29,0.539,0.811,0.916,1.413,1.022   l8.94,1.58c-0.664,1.124-1.231,2.105-1.677,2.891c-1.194,2.104-0.831,4.769,0.883,6.483l0.499,0.499l-2.12,2.12   c-2.135,2.136-2.135,5.612,0,7.749l4.835,4.836c1.035,1.035,2.411,1.604,3.875,1.604c1.463,0,2.839-0.57,3.874-1.605l2.119-2.119   l0.499,0.499c1.023,1.023,2.381,1.586,3.823,1.586c0.93,0,1.849-0.243,2.66-0.703c0.786-0.446,1.766-1.012,2.89-1.677l1.58,8.94   c0.106,0.603,0.483,1.124,1.022,1.413c0.295,0.159,0.621,0.239,0.947,0.239c0.27,0,0.541-0.055,0.795-0.165l7.099-3.075   c2.342-1.015,4.003-3.218,4.334-5.749l1.715-13.117c8.944-6.577,18.26-14.727,23.224-22.987c3.862-6.428,5.203-20.502,5.658-28.32   c0.087-1.504-0.433-2.934-1.464-4.028C92.438,5.541,90.89,4.916,89.277,5.009z M20.705,46.305l2.069-4.775   c0.458-1.058,1.453-1.808,2.597-1.958l9.426-1.232c-2.351,3.4-4.419,6.615-6.123,9.374L20.705,46.305z M33.798,73.13   c-0.559,0.559-1.534,0.559-2.092,0l-4.835-4.835c-0.577-0.577-0.577-1.516,0-2.092l2.12-2.119l6.927,6.927L33.798,73.13z    M60.429,74.63c-0.15,1.144-0.9,2.139-1.958,2.597l-4.775,2.069l-1.409-7.969c2.758-1.703,5.974-3.772,9.374-6.123L60.429,74.63z    M85.905,36.984c-9.159,15.244-34.579,30.459-42.152,34.76c-0.538,0.304-1.242,0.204-1.68-0.233L40.162,69.6   c-0.001-0.001-0.001-0.002-0.002-0.003l-9.756-9.756c-0.001-0.001-0.002-0.001-0.003-0.002l-1.911-1.911   c-0.445-0.446-0.542-1.137-0.233-1.68c4.3-7.573,19.516-32.993,34.76-42.152C68.923,10.548,83.511,9.352,89.596,9   c0.39,0,0.753,0.157,1.022,0.441c0.268,0.284,0.403,0.657,0.38,1.05C90.649,16.49,89.453,31.078,85.905,36.984z"/><path d="M69.408,20.262c-2.76,0-5.354,1.075-7.306,3.026c-4.027,4.028-4.027,10.583,0,14.61c1.951,1.951,4.545,3.026,7.305,3.026   c2.759,0,5.354-1.074,7.305-3.026c4.028-4.028,4.028-10.582,0-14.611C74.762,21.336,72.168,20.262,69.408,20.262z M73.885,35.069   c-1.196,1.196-2.786,1.854-4.477,1.854c-1.691,0-3.281-0.658-4.477-1.854c-2.468-2.469-2.468-6.485,0-8.954   c1.196-1.196,2.786-1.854,4.477-1.854c1.691,0,3.281,0.658,4.477,1.854C76.354,28.584,76.354,32.601,73.885,35.069z"/><path d="M16.788,72.151c-2.955,0-5.733,1.151-7.822,3.24C5.029,79.327,4.973,90.77,5.002,93.024c0.014,1.084,0.89,1.96,1.975,1.975   L7.256,95c4.026,0,13.776-0.386,17.354-3.964c2.089-2.089,3.24-4.867,3.24-7.822s-1.151-5.733-3.24-7.822   S19.743,72.151,16.788,72.151z M21.782,88.207c-1.723,1.723-7.505,2.603-12.759,2.765c0.149-4.807,1.003-10.986,2.771-12.753   c1.334-1.334,3.107-2.068,4.994-2.068s3.66,0.734,4.994,2.068s2.068,3.107,2.068,4.994S23.116,86.873,21.782,88.207z"/></g><text x="0" y="115" fill="#000000" font-size="5px" font-weight="bold" font-family="'Helvetica Neue', Helvetica, Arial-Unicode, Arial, Sans-serif">Created by Maxim Kulikov</text><text x="0" y="120" fill="#000000" font-size="5px" font-weight="bold" font-family="'Helvetica Neue', Helvetica, Arial-Unicode, Arial, Sans-serif">from the Noun Project</text></svg>