<svg xmlns="http://www.w3.org/2000/svg" xmlns:xlink="http://www.w3.org/1999/xlink" version="1.1" x="0px" y="0px" viewBox="0 0 55 68.75" style="enable-background:new 0 0 55 55;" xml:space="preserve"><style type="text/css">
	.st0{fill:none;stroke:#000000;stroke-width:2;stroke-linecap:round;stroke-linejoin:round;stroke-miterlimit:10;}
</style><g><g><path class="st0" d="M51.5000114,16.2566624v29.6900043c0,1.2700195-1.0300293,2.2999878-2.2900391,2.2999878H5.789989    c-1.2600098,0-2.289978-1.0299683-2.289978-2.2999878V16.2566624c0-0.5100088,0.1699829-0.9799795,0.4400024-1.3599844    c0.4199829-0.5700073,1.0899658-0.9400024,1.8499756-0.9400024h43.4199829c0.7600098,0,1.4299927,0.3699951,1.8500366,0.9400024    C51.3299675,15.2766829,51.5000114,15.7466536,51.5000114,16.2566624z"/></g><g><path class="st0" d="M3.499989,18.9466801c5.2099996,5.6800003,11.2000008,9.2700005,17.3900013,10.75"/><path class="st0" d="M34.1099892,29.6966801c6.1899986-1.4799995,12.1800003-5.0699997,17.3899994-10.75"/><path class="st0" d="M34.2411804,30.4826946c0,2.1400433-3.0198345,3.8639965-6.7411652,3.8639965    s-6.7412376-1.7239532-6.7412376-3.8639965c0-0.2616005,0.0476036-0.5231285,0.1308365-0.784729    c0.6300907-1.7476788,3.3526955-3.0792656,6.6104012-3.0792656c3.2576332,0,5.9802361,1.3315868,6.6104012,3.0792656    C34.1936493,29.9595661,34.2411804,30.2210941,34.2411804,30.4826946z"/></g><path class="st0" d="M35.3958435,13.9566755h-15.791666v-3.4704618c0-2.0616055,1.6712608-3.7328668,3.7328663-3.7328668h8.3259335   c2.0616055,0,3.7328663,1.6712613,3.7328663,3.7328668V13.9566755z"/></g><text x="0" y="70" fill="#000000" font-size="5px" font-weight="bold" font-family="'Helvetica Neue', Helvetica, Arial-Unicode, Arial, Sans-serif">Created by Dinosoft Labs</text><text x="0" y="75" fill="#000000" font-size="5px" font-weight="bold" font-family="'Helvetica Neue', Helvetica, Arial-Unicode, Arial, Sans-serif">from the Noun Project</text></svg>