<svg xmlns:dc="http://purl.org/dc/elements/1.1/" xmlns:cc="http://creativecommons.org/ns#" xmlns:rdf="http://www.w3.org/1999/02/22-rdf-syntax-ns#" xmlns:svg="http://www.w3.org/2000/svg" xmlns="http://www.w3.org/2000/svg" xmlns:sodipodi="http://sodipodi.sourceforge.net/DTD/sodipodi-0.dtd" xmlns:inkscape="http://www.inkscape.org/namespaces/inkscape" version="1.1" x="0px" y="0px" viewBox="0 0 100 125"><g transform="translate(0,-952.36218)"><path style="font-size:medium;font-style:normal;font-variant:normal;font-weight:normal;font-stretch:normal;text-indent:0;text-align:start;text-decoration:none;line-height:normal;letter-spacing:normal;word-spacing:normal;text-transform:none;direction:ltr;block-progression:tb;writing-mode:lr-tb;text-anchor:start;baseline-shift:baseline;opacity:1;color:#000000;fill:#000000;fill-opacity:1;stroke:none;stroke-width:2;marker:none;visibility:visible;display:inline;overflow:visible;enable-background:accumulate;font-family:Sans;-inkscape-font-specification:Sans" d="M 35 13 C 32.801298 13 31 14.8013 31 17 L 31 25 L 11 25 C 8.8011974 25 7 26.8012 7 29 L 7 83 C 7 85.1988 8.8011893 87 11 87 L 83 87 A 1.0001 1.0001 0 1 0 83 85 L 11 85 C 9.8746105 85 9 84.1254 9 83 L 9 52.34375 C 13.440387 53.657538 18.122143 54.749208 23 55.625 L 23 62 A 1.0001 1.0001 0 0 0 24 63 L 32 63 A 1.0001 1.0001 0 0 0 33 62 L 33 57.0625 C 38.491327 57.663053 44.173292 58 50 58 C 55.826709 58 61.508673 57.663053 67 57.0625 L 67 62 A 1.0001 1.0001 0 0 0 68 63 L 76 63 A 1.0001 1.0001 0 0 0 77 62 L 77 55.625 C 81.877857 54.749208 86.559613 53.657538 91 52.34375 L 91 83 C 91 84.1254 90.125389 85 89 85 A 1.0001 1.0001 0 1 0 89 87 C 91.198811 87 93 85.1988 93 83 L 93 29 C 93 26.8012 91.198803 25 89 25 L 69 25 L 69 17 C 69 14.8013 67.198701 13 65 13 L 35 13 z M 35 15 L 65 15 C 66.125295 15 67 15.8747 67 17 L 67 25 L 33 25 L 33 17 C 33 15.8747 33.874704 15 35 15 z M 11 27 L 89 27 C 90.125397 27 91 27.8746 91 29 L 91 50.21875 C 86.571062 51.555878 81.89048 52.700205 77 53.59375 L 77 50 A 1.0001 1.0001 0 0 0 76.1875 49 A 1.0001 1.0001 0 0 0 76 49 L 68 49 A 1.0001 1.0001 0 0 0 67 50 L 67 55.0625 C 61.510168 55.670259 55.838404 56 50 56 C 44.161597 56 38.489832 55.670259 33 55.0625 L 33 50 A 1.0001 1.0001 0 0 0 32 49 L 24 49 A 1.0001 1.0001 0 0 0 23.8125 49 A 1.0001 1.0001 0 0 0 23 50 L 23 53.59375 C 18.10952 52.700205 13.428938 51.555878 9 50.21875 L 9 29 C 9 27.8746 9.8746024 27 11 27 z M 25 51 L 31 51 L 31 61 L 25 61 L 25 51 z M 69 51 L 75 51 L 75 61 L 69 61 L 69 51 z " transform="translate(0,952.36218)"/></g><text x="0" y="115" fill="#000000" font-size="5px" font-weight="bold" font-family="'Helvetica Neue', Helvetica, Arial-Unicode, Arial, Sans-serif">Created by throwaway icons</text><text x="0" y="120" fill="#000000" font-size="5px" font-weight="bold" font-family="'Helvetica Neue', Helvetica, Arial-Unicode, Arial, Sans-serif">from the Noun Project</text></svg>