<svg xmlns="http://www.w3.org/2000/svg" xmlns:xlink="http://www.w3.org/1999/xlink" version="1.1" x="0px" y="0px" viewBox="0 0 24 30" style="enable-background:new 0 0 24 24;" xml:space="preserve"><g><path d="M19.999,24H5c-1.654,0-3-1.346-3-3V2.002C2,0.898,2.898,0,4.002,0h13.997C19.103,0,20,0.897,20,2.001L20.004,3   C21.104,3,22,3.896,22,4.997v17.002C22,23.103,21.103,24,19.999,24z M3,21c0,1.103,0.897,2,2,2h14.999   C20.551,23,21,22.551,21,21.999V4.997C21,4.447,20.553,4,20.004,4H20v12.997C20,18.102,19.102,19,17.997,19H5   C3.897,19,3,19.897,3,21z M4.002,1C3.45,1,3,1.45,3,2.002v16.763C3.531,18.29,4.232,18,5,18h12.997C18.55,18,19,17.55,19,16.997   V2.001C19,1.449,18.551,1,17.999,1H4.002z"/><rect x="7" y="9" width="8" height="1"/><rect x="7" y="6" width="8" height="1"/><path d="M18.904,21.5H5v-1h13.904c0.053,0,0.096-0.043,0.096-0.096v-3.612h1v3.612C20,21.009,19.509,21.5,18.904,21.5z"/></g><text x="0" y="39" fill="#000000" font-size="5px" font-weight="bold" font-family="'Helvetica Neue', Helvetica, Arial-Unicode, Arial, Sans-serif">Created by ✦ Shmidt Sergey ✦</text><text x="0" y="44" fill="#000000" font-size="5px" font-weight="bold" font-family="'Helvetica Neue', Helvetica, Arial-Unicode, Arial, Sans-serif">from the Noun Project</text></svg>