<svg xmlns="http://www.w3.org/2000/svg" xmlns:xlink="http://www.w3.org/1999/xlink" viewBox="0 0 30 37.5" version="1.1" x="0px" y="0px"><title>mic</title><desc>Created with Sketch.</desc><g stroke="none" stroke-width="1" fill="none" fill-rule="evenodd"><path d="M18.7284479,16.6346211 L18.7284479,8.90696664 C18.7284479,6.96310097 17.0609416,5.38392676 15,5.38392676 C12.938955,5.38392676 11.2715521,6.96304748 11.2715521,8.90696664 L11.2715521,16.6346211 C11.2715521,18.5785716 12.9389878,20.1578122 15,20.1578122 C17.0609088,20.1578122 18.7284479,18.5785181 18.7284479,16.6346211 Z M19.1170385,16.6346211 C19.1170385,18.7942728 17.2719306,20.541739 15,20.541739 C12.7279637,20.541739 10.8829615,18.7943238 10.8829615,16.6346211 L10.8829615,8.90696664 C10.8829615,6.74729025 12.7279355,5 15,5 C17.2719588,5 19.1170385,6.74734123 19.1170385,8.90696664 L19.1170385,16.6346211 Z M20.6114093,12.919391 C20.6114093,12.8133725 20.6983983,12.7274276 20.8057047,12.7274276 C20.913011,12.7274276 21,12.8133725 21,12.919391 L21,16.9037596 C21,20.062993 18.3413648,22.6224766 15.0388058,22.6224766 C11.7185017,22.6224766 9,20.0504572 9,16.9037596 L9,12.919391 C9,12.8133725 9.08698899,12.7274276 9.19429535,12.7274276 C9.3016017,12.7274276 9.38859069,12.8133725 9.38859069,12.919391 L9.38859069,16.9037596 C9.38859069,19.834611 11.9294393,22.2385498 15.0341747,22.2385498 C18.1289751,22.2385498 20.6114093,19.8486959 20.6114093,16.9037596 L20.6114093,12.919391 Z M14.9626687,22.4303317 C14.9626687,22.3243132 15.0496577,22.2383683 15.156964,22.2383683 C15.2642704,22.2383683 15.3512594,22.3243132 15.3512594,22.4303317 L15.3512594,24.8080366 C15.3512594,24.9140551 15.2642704,25 15.156964,25 C15.0496577,25 14.9626687,24.9140551 14.9626687,24.8080366 L14.9626687,22.4303317 Z M11.0772728,24.9999546 C10.9699664,24.9999546 10.8829774,24.9140097 10.8829774,24.8079912 C10.8829774,24.7019728 10.9699664,24.6160279 11.0772728,24.6160279 L19.2367192,24.6160279 C19.3440255,24.6160279 19.4310145,24.7019728 19.4310145,24.8079912 C19.4310145,24.9140097 19.3440255,24.9999546 19.2367192,24.9999546 L11.0772728,24.9999546 Z M19.2366713,14.3003278 C19.1293649,14.3003278 19.0423759,14.2143829 19.0423759,14.1083644 C19.0423759,14.002346 19.1293649,13.9164011 19.2366713,13.9164011 L20.8056727,13.9164011 C20.9129791,13.9164011 20.9999681,14.002346 20.9999681,14.1083644 C20.9999681,14.2143829 20.9129791,14.3003278 20.8056727,14.3003278 L19.2366713,14.3003278 Z M9.19429535,14.3003278 C9.08698899,14.3003278 9,14.2143829 9,14.1083644 C9,14.002346 9.08698899,13.9164011 9.19429535,13.9164011 L11.0772568,13.9164011 C11.1845632,13.9164011 11.2715521,14.002346 11.2715521,14.1083644 C11.2715521,14.2143829 11.1845632,14.3003278 11.0772568,14.3003278 L9.19429535,14.3003278 Z M11.0772728,10.7336948 C10.9699664,10.7336948 10.8829774,10.6477499 10.8829774,10.5417314 C10.8829774,10.435713 10.9699664,10.349768 11.0772728,10.349768 L14.2154354,10.349768 C14.3227417,10.349768 14.4097307,10.435713 14.4097307,10.5417314 C14.4097307,10.6477499 14.3227417,10.7336948 14.2154354,10.7336948 L11.0772728,10.7336948 Z M11.0772728,12.5170113 C10.9699664,12.5170113 10.8829774,12.4310664 10.8829774,12.3250479 C10.8829774,12.2190295 10.9699664,12.1330845 11.0772728,12.1330845 L14.2154354,12.1330845 C14.3227417,12.1330845 14.4097307,12.2190295 14.4097307,12.3250479 C14.4097307,12.4310664 14.3227417,12.5170113 14.2154354,12.5170113 L11.0772728,12.5170113 Z M11.0772728,14.3003278 C10.9699664,14.3003278 10.8829774,14.2143829 10.8829774,14.1083644 C10.8829774,14.002346 10.9699664,13.9164011 11.0772728,13.9164011 L14.2154354,13.9164011 C14.3227417,13.9164011 14.4097307,14.002346 14.4097307,14.1083644 C14.4097307,14.2143829 14.3227417,14.3003278 14.2154354,14.3003278 L11.0772728,14.3003278 Z M11.0772728,16.0835082 C10.9699664,16.0835082 10.8829774,15.9975633 10.8829774,15.8915448 C10.8829774,15.7855264 10.9699664,15.6995814 11.0772728,15.6995814 L14.2154354,15.6995814 C14.3227417,15.6995814 14.4097307,15.7855264 14.4097307,15.8915448 C14.4097307,15.9975633 14.3227417,16.0835082 14.2154354,16.0835082 L11.0772728,16.0835082 Z M15.7845167,10.7336948 C15.6772103,10.7336948 15.5902214,10.6477499 15.5902214,10.5417314 C15.5902214,10.435713 15.6772103,10.349768 15.7845167,10.349768 L18.9226793,10.349768 C19.0299857,10.349768 19.1169747,10.435713 19.1169747,10.5417314 C19.1169747,10.6477499 19.0299857,10.7336948 18.9226793,10.7336948 L15.7845167,10.7336948 Z M15.7845167,12.5170113 C15.6772103,12.5170113 15.5902214,12.4310664 15.5902214,12.3250479 C15.5902214,12.2190295 15.6772103,12.1330845 15.7845167,12.1330845 L18.9226793,12.1330845 C19.0299857,12.1330845 19.1169747,12.2190295 19.1169747,12.3250479 C19.1169747,12.4310664 19.0299857,12.5170113 18.9226793,12.5170113 L15.7845167,12.5170113 Z M15.7845167,14.3003278 C15.6772103,14.3003278 15.5902214,14.2143829 15.5902214,14.1083644 C15.5902214,14.002346 15.6772103,13.9164011 15.7845167,13.9164011 L18.9226793,13.9164011 C19.0299857,13.9164011 19.1169747,14.002346 19.1169747,14.1083644 C19.1169747,14.2143829 19.0299857,14.3003278 18.9226793,14.3003278 L15.7845167,14.3003278 Z M15.7845167,16.0835082 C15.6772103,16.0835082 15.5902214,15.9975633 15.5902214,15.8915448 C15.5902214,15.7855264 15.6772103,15.6995814 15.7845167,15.6995814 L18.9226793,15.6995814 C19.0299857,15.6995814 19.1169747,15.7855264 19.1169747,15.8915448 C19.1169747,15.9975633 19.0299857,16.0835082 18.9226793,16.0835082 L15.7845167,16.0835082 Z" fill="#000000" fill-rule="nonzero"/></g><text x="0" y="45" fill="#000000" font-size="5px" font-weight="bold" font-family="'Helvetica Neue', Helvetica, Arial-Unicode, Arial, Sans-serif">Created by zalhan</text><text x="0" y="50" fill="#000000" font-size="5px" font-weight="bold" font-family="'Helvetica Neue', Helvetica, Arial-Unicode, Arial, Sans-serif">from the Noun Project</text></svg>