<svg xmlns="http://www.w3.org/2000/svg" xmlns:xlink="http://www.w3.org/1999/xlink" version="1.1" x="0px" y="0px" viewBox="0 0 100 125" enable-background="new 0 0 100 100" xml:space="preserve"><path d="M97.333,5.333H2.667v9.333H6.5V68c0,1.654,1.346,3,3,3H49v11.087c-3.018,0.481-5.333,3.096-5.333,6.247  c0,3.491,2.841,6.332,6.333,6.332s6.333-2.841,6.333-6.332c0-3.151-2.315-5.766-5.333-6.247V71h39.5c1.654,0,3-1.346,3-3V14.667  h3.833V5.333z M54.333,88.334c0,2.389-1.943,4.332-4.333,4.332c-2.389,0-4.333-1.943-4.333-4.332C45.667,85.944,47.611,84,50,84  C52.39,84,54.333,85.944,54.333,88.334z M91.5,68c0,0.552-0.448,1-1,1h-81c-0.551,0-1-0.448-1-1V14.667h83V68z M95.333,12.667H4.667  V7.333h90.666V12.667z"/><polygon points="27.896,47.167 29.896,47.167 29.896,42.833 34.229,42.833 34.229,40.833 29.896,40.833 29.896,36.5 27.896,36.5   27.896,40.833 23.563,40.833 23.563,42.833 27.896,42.833 "/><polygon points="46.936,46.312 50,43.248 53.064,46.312 54.479,44.898 51.414,41.834 54.479,38.77 53.064,37.356 50,40.42   46.936,37.356 45.522,38.77 48.586,41.834 45.522,44.898 "/><rect x="65.771" y="40.833" width="10.666" height="2"/><text x="0" y="115" fill="#000000" font-size="5px" font-weight="bold" font-family="'Helvetica Neue', Helvetica, Arial-Unicode, Arial, Sans-serif">Created by Srinivas Agra</text><text x="0" y="120" fill="#000000" font-size="5px" font-weight="bold" font-family="'Helvetica Neue', Helvetica, Arial-Unicode, Arial, Sans-serif">from the Noun Project</text></svg>