<svg xmlns="http://www.w3.org/2000/svg" xmlns:xlink="http://www.w3.org/1999/xlink" version="1.1" x="0px" y="0px" viewBox="0 0 100 125" enable-background="new 0 0 100 100" xml:space="preserve"><g><path d="M87.928,28.189L50.729,6.735l-37.18,21.487l0.02,42.943l37.198,21.454l37.179-21.488L87.928,28.189z M85.446,69.544   l-0.126,0.219L52.018,89.01V50.397l33.411-19.31L85.446,69.544z M49.482,11.179l2.5-0.002l-0.001-0.834l32.205,18.575   l-33.42,19.315L17.309,28.937l32.172-18.593L49.482,11.179z M16.068,69.639l-0.018-38.542l33.466,19.302v38.613L16.138,69.76   L16.068,69.639z"/><rect x="44.104" y="51.401" transform="matrix(0.8658 -0.5004 0.5004 0.8658 -20.229 29.8775)" width="2.961" height="2.5"/><rect x="18.695" y="65.989" transform="matrix(-0.5005 -0.8658 0.8658 -0.5005 -28.4857 118.5025)" width="2.5" height="2.961"/><rect x="28.951" y="60.061" transform="matrix(-0.5005 -0.8658 0.8658 -0.5005 -7.9644 118.4876)" width="2.5" height="2.961"/><rect x="23.823" y="63.025" transform="matrix(-0.5005 -0.8658 0.8658 -0.5005 -18.2255 118.4948)" width="2.5" height="2.961"/><rect x="34.079" y="57.097" transform="matrix(-0.5005 -0.8658 0.8658 -0.5005 2.2954 118.4807)" width="2.5" height="2.962"/><rect x="39.207" y="54.133" transform="matrix(-0.5005 -0.8658 0.8658 -0.5005 12.5557 118.473)" width="2.5" height="2.962"/><rect x="59.527" y="54.355" transform="matrix(0.8663 0.4996 -0.4996 0.8663 35.9378 -23.0419)" width="2.961" height="2.5"/><rect x="64.657" y="57.314" transform="matrix(0.8661 0.4998 -0.4998 0.8661 38.1263 -25.2174)" width="2.962" height="2.501"/><rect x="74.918" y="63.233" transform="matrix(0.8663 0.4996 -0.4996 0.8663 42.4313 -29.5439)" width="2.961" height="2.5"/><rect x="80.049" y="66.192" transform="matrix(0.8663 0.4996 -0.4996 0.8663 44.5958 -31.7115)" width="2.961" height="2.5"/><rect x="69.788" y="60.274" transform="matrix(0.8662 0.4997 -0.4997 0.8662 40.2816 -27.3817)" width="2.961" height="2.501"/><rect x="54.627" y="51.165" transform="matrix(-0.4992 0.8665 -0.8665 -0.4992 129.3883 30.5148)" width="2.5" height="2.961"/><rect x="49.486" y="14.178" width="2.5" height="3"/><rect x="49.497" y="26.178" width="2.5" height="3"/><rect x="49.492" y="20.178" width="2.5" height="3"/><rect x="49.502" y="32.178" width="2.5" height="3"/><rect x="49.508" y="38.178" width="2.5" height="3"/><rect x="49.514" y="44.178" width="2.5" height="3"/></g><text x="0" y="115" fill="#000000" font-size="5px" font-weight="bold" font-family="'Helvetica Neue', Helvetica, Arial-Unicode, Arial, Sans-serif">Created by Creative Mania</text><text x="0" y="120" fill="#000000" font-size="5px" font-weight="bold" font-family="'Helvetica Neue', Helvetica, Arial-Unicode, Arial, Sans-serif">from the Noun Project</text></svg>