<svg xmlns="http://www.w3.org/2000/svg" xmlns:xlink="http://www.w3.org/1999/xlink" version="1.1" x="0px" y="0px" viewBox="0 0 100 125" style="enable-background:new 0 0 100 100;" xml:space="preserve"><path d="M68.5,35.5c-0.5-0.7-0.9-1.3-1.1-1.9c-0.2-0.6-0.2-1.4-0.2-2.3c0-1.4-0.1-2.8-0.9-3.9c-0.8-1.2-2.2-1.6-3.5-2.1  c-0.8-0.3-1.5-0.5-2-0.9c-0.5-0.4-1-1-1.5-1.6c-0.8-1-1.7-2.2-3.1-2.7c-1.3-0.4-2.7,0-4,0.4C51.5,20.8,50.7,21,50,21  c-0.7,0-1.5-0.2-2.3-0.5c-1.3-0.4-2.6-0.8-4-0.4c-1.4,0.4-2.3,1.6-3.1,2.7c-0.5,0.7-1,1.3-1.5,1.6c-0.5,0.4-1.3,0.6-2,0.9  c-1.2,0.4-2.6,0.9-3.5,2.1c-0.8,1.1-0.9,2.6-0.9,3.9c0,0.8,0,1.6-0.2,2.3c-0.2,0.6-0.6,1.2-1.1,1.9c-0.8,1.1-1.6,2.3-1.6,3.8  s0.9,2.7,1.6,3.8c0.5,0.7,0.9,1.3,1.1,1.9c0.2,0.6,0.2,1.4,0.2,2.3c0,1.4,0.1,2.8,0.9,3.9c0.8,1.1,2.1,1.6,3.3,2V78  c0,0.8,0.4,1.5,1.1,1.8c0.3,0.1,0.6,0.2,0.9,0.2c0.5,0,0.9-0.2,1.3-0.5l9.8-8.1l9.7,8.1c0.6,0.5,1.4,0.6,2.1,0.3  c0.7-0.3,1.1-1,1.1-1.8V53.2c1.2-0.4,2.5-0.9,3.3-2c0.8-1.1,0.9-2.6,0.9-3.9c0-0.8,0-1.6,0.2-2.3c0.2-0.6,0.6-1.2,1.1-1.9  c0.8-1.1,1.6-2.3,1.6-3.8C70.1,37.9,69.3,36.6,68.5,35.5z M50.7,69.4c-0.4-0.3-0.9-0.3-1.3,0L39,78V54c0.1,0.1,0.2,0.1,0.3,0.2  c0.5,0.4,1,1,1.5,1.6c0.8,1,1.7,2.2,3.1,2.7c1.3,0.4,2.7,0,4-0.4c0.8-0.2,1.6-0.5,2.3-0.5c0.7,0,1.5,0.2,2.3,0.5  c0.9,0.3,1.8,0.5,2.7,0.5c0.4,0,0.8-0.1,1.2-0.2c1.4-0.4,2.3-1.6,3.1-2.7c0.5-0.7,1-1.3,1.5-1.6c0.1-0.1,0.2-0.1,0.3-0.2l0,24  L50.7,69.4z M66.9,42c-0.5,0.8-1.1,1.5-1.4,2.4c-0.3,0.9-0.3,1.9-0.3,2.8c0,1.1,0,2.1-0.5,2.8c-0.5,0.6-1.5,1-2.5,1.4  c-0.9,0.3-1.8,0.6-2.6,1.2c-0.8,0.5-1.3,1.3-1.9,2.1c-0.7,0.9-1.3,1.7-2.1,2c-0.7,0.2-1.7-0.1-2.8-0.4c-0.9-0.3-1.9-0.6-2.8-0.6  c-1,0-1.9,0.3-2.8,0.6c-1,0.3-2,0.6-2.8,0.4c-0.8-0.3-1.4-1.1-2.1-2c-0.6-0.7-1.1-1.5-1.9-2.1c-0.8-0.6-1.7-0.9-2.6-1.2  c-1-0.4-2-0.7-2.5-1.4c-0.5-0.6-0.5-1.7-0.5-2.8c0-0.9,0-1.9-0.3-2.8c-0.3-0.9-0.8-1.6-1.4-2.4c-0.6-0.9-1.3-1.8-1.3-2.6  s0.6-1.7,1.3-2.6c0.5-0.8,1.1-1.5,1.4-2.4c0.3-0.9,0.3-1.9,0.3-2.8c0-1.1,0-2.1,0.5-2.8c0.5-0.6,1.5-1,2.5-1.4  c0.9-0.3,1.8-0.6,2.6-1.2c0.8-0.5,1.3-1.3,1.9-2.1c0.7-0.9,1.3-1.7,2.1-2c0.7-0.2,1.7,0.1,2.8,0.4C48.1,22.7,49,23,50,23  s1.9-0.3,2.8-0.6c1-0.3,2-0.6,2.8-0.4c0.8,0.3,1.4,1.1,2.1,2c0.6,0.7,1.1,1.5,1.9,2.1c0.8,0.6,1.7,0.9,2.6,1.2c1,0.4,2,0.7,2.5,1.4  c0.5,0.6,0.5,1.7,0.5,2.8c0,0.9,0,1.9,0.3,2.8c0.3,0.9,0.8,1.6,1.4,2.4c0.6,0.9,1.3,1.8,1.3,2.6C68.1,40.2,67.5,41.1,66.9,42z   M60.4,34l-6-0.9l-2.7-5.4c-0.3-0.7-1-1.1-1.8-1.1s-1.4,0.4-1.8,1.1l-2.7,5.4l-6,0.9c-0.7,0.1-1.4,0.6-1.6,1.3s0,1.5,0.5,2l4.3,4.2  l-1,6c-0.1,0.7,0.2,1.5,0.8,1.9c0.6,0.4,1.4,0.5,2.1,0.2l5.3-2.8l5.4,2.8c0.3,0.2,0.6,0.2,0.9,0.2c0.4,0,0.8-0.1,1.2-0.4  c0.6-0.4,0.9-1.2,0.8-1.9l-1-5.9l4.3-4.2c0.5-0.5,0.7-1.3,0.5-2C61.8,34.6,61.2,34.1,60.4,34z M55.8,40.1c-0.5,0.5-0.7,1.1-0.6,1.7  l1.1,5.9L50.9,45c-0.6-0.3-1.3-0.3-1.8,0l-5.3,2.9l1-6c0.1-0.6-0.1-1.3-0.6-1.7L39.9,36l6-0.9c0.6-0.1,1.2-0.5,1.5-1.1l2.6-5.4  l2.7,5.4c0.3,0.6,0.8,1,1.5,1.1l5.9,0.9L55.8,40.1z"/><text x="0" y="115" fill="#000000" font-size="5px" font-weight="bold" font-family="'Helvetica Neue', Helvetica, Arial-Unicode, Arial, Sans-serif">Created by Mello</text><text x="0" y="120" fill="#000000" font-size="5px" font-weight="bold" font-family="'Helvetica Neue', Helvetica, Arial-Unicode, Arial, Sans-serif">from the Noun Project</text></svg>