<svg xmlns="http://www.w3.org/2000/svg" viewBox="0 0 100 125" x="0px" y="0px"><title>Artboard 11</title><g data-name="Layer 2"><path d="M30.21,41.93H25.79a1.5,1.5,0,1,0,0,3h2.92v3.8A21,21,0,0,0,48.24,69.67V75.4H43.31a7.54,7.54,0,0,0-7.54,7.54,1.5,1.5,0,0,0,1.5,1.5H62.2a1.5,1.5,0,0,0,1.5-1.5,7.54,7.54,0,0,0-7.54-7.54H51.24V69.67A21,21,0,0,0,70.76,48.73v-3.8h3.45a1.5,1.5,0,0,0,0-3H69.26a1.5,1.5,0,0,0-1.5,1.5v5.3a18,18,0,0,1-36,0v-5.3A1.5,1.5,0,0,0,30.21,41.93ZM60.44,81.44H39a4.54,4.54,0,0,1,4.28-3H56.16A4.54,4.54,0,0,1,60.44,81.44ZM34.22,49.1a15.53,15.53,0,0,0,31,0,1.5,1.5,0,0,0,0-.32s0-.09,0-.14,0-.18,0-.27V31.12c0-.09,0-.18,0-.27s0-.09,0-.14a1.5,1.5,0,0,0,0-.32,15.53,15.53,0,0,0-31,0,1.5,1.5,0,0,0,0,.32s0,.09,0,.14,0,.18,0,.27V48.37c0,.09,0,.18,0,.27s0,.09,0,.14A1.5,1.5,0,0,0,34.22,49.1ZM49.74,18.56A12.56,12.56,0,0,1,62.13,29.21H55.89a1.5,1.5,0,0,0,0,3h6.4v3h-6.4a1.5,1.5,0,1,0,0,3h6.4v3h-6.4a1.5,1.5,0,0,0,0,3h6.4v3h-6.4a1.5,1.5,0,0,0,0,3h6.23a12.53,12.53,0,0,1-24.78,0h6.24a1.5,1.5,0,0,0,0-3h-6.4v-3h6.4a1.5,1.5,0,0,0,0-3h-6.4v-3h6.4a1.5,1.5,0,0,0,0-3h-6.4v-3h6.4a1.5,1.5,0,1,0,0-3H37.35A12.56,12.56,0,0,1,49.74,18.56Z"/></g><text x="0" y="115" fill="#000000" font-size="5px" font-weight="bold" font-family="'Helvetica Neue', Helvetica, Arial-Unicode, Arial, Sans-serif">Created by Path Lord</text><text x="0" y="120" fill="#000000" font-size="5px" font-weight="bold" font-family="'Helvetica Neue', Helvetica, Arial-Unicode, Arial, Sans-serif">from the Noun Project</text></svg>