<svg xmlns="http://www.w3.org/2000/svg" xmlns:xlink="http://www.w3.org/1999/xlink" xml:space="preserve" style="shape-rendering:geometricPrecision;text-rendering:geometricPrecision;image-rendering:optimizeQuality;" viewBox="0 0 6.82666 8.533325000000001" x="0px" y="0px" fill-rule="evenodd" clip-rule="evenodd"><defs><style type="text/css">
   
    .fil1 {fill:none}
    .fil0 {fill:black;fill-rule:nonzero}
   
  </style></defs><g><g><path class="fil0" d="M1.06969 1.8851l4.68729 0c0.0595748,0 0.113693,0.0243189 0.152862,0.0634882 0.0391772,0.0391772 0.0634921,0.0932835 0.0634921,0.152862l0 3.15328c0,0.0595866 -0.024315,0.113693 -0.0634921,0.152862 -0.0391693,0.0391772 -0.0932756,0.0634921 -0.152862,0.0634921l-4.68729 0c-0.0595866,0 -0.113693,-0.024315 -0.152862,-0.0634921 -0.0391772,-0.0391693 -0.0634921,-0.0932756 -0.0634921,-0.152862l0 -3.15328c0,-0.0595787 0.024315,-0.113685 0.0634921,-0.152862 0.0391693,-0.0391693 0.0932874,-0.0634882 0.152862,-0.0634882zm4.68729 0.16l-4.68729 0c-0.0154134,0 -0.0294882,0.00636614 -0.0397362,0.0166142 -0.010252,0.010252 -0.0166181,0.0243268 -0.0166181,0.0397362l0 3.15328c0,0.0154094 0.00636614,0.0294843 0.0166181,0.0397362 0.010252,0.010252 0.0243268,0.0166181 0.0397362,0.0166181l4.68729 0c0.0154094,0 0.0294843,-0.00636614 0.0397362,-0.0166181 0.010252,-0.010252 0.0166181,-0.0243268 0.0166181,-0.0397362l0 -3.15328c0,-0.0154094 -0.00636614,-0.0294843 -0.0166181,-0.0397362 -0.010248,-0.010248 -0.0243228,-0.0166142 -0.0397362,-0.0166142zm-2.34365 1.35078l3.93701e-006 0c0.0772323,0 0.147386,0.0315354 0.198197,0.0823465 0.0508031,0.0508031 0.0823425,0.120961 0.0823425,0.198193l0 0.530012c0,0.0772283 -0.0315394,0.147386 -0.0823425,0.198197 -0.050811,0.0508031 -0.120969,0.0823425 -0.198197,0.0823425l-3.93701e-006 0c-0.0772283,0 -0.147386,-0.0315394 -0.198197,-0.0823425 -0.0508031,-0.050811 -0.0823425,-0.120969 -0.0823425,-0.198197l0 -0.530012c0,-0.0772323 0.0315394,-0.14739 0.0823425,-0.198193 0.050811,-0.050811 0.120965,-0.0823465 0.198197,-0.0823465zm3.93701e-006 0.16l-3.93701e-006 0c-0.033063,0 -0.063185,0.0135866 -0.0850709,0.0354724 -0.0218819,0.0218819 -0.0354685,0.0520039 -0.0354685,0.0850669l0 0.530012c0,0.0330669 0.0135866,0.063189 0.0354685,0.0850709 0.0218819,0.0218819 0.0520039,0.0354685 0.0850709,0.0354685l3.93701e-006 0c0.0330669,0 0.063189,-0.0135866 0.0850709,-0.0354685 0.0218819,-0.0218819 0.0354685,-0.0520039 0.0354685,-0.0850709l0 -0.530012c0,-0.033063 -0.0135866,-0.063185 -0.0354685,-0.0850669 -0.0218858,-0.0218858 -0.0520079,-0.0354724 -0.0850709,-0.0354724z"/><path class="fil0" d="M1.06969 1.8851l4.68729 0c0.0595827,0 0.113689,0.0243189 0.152866,0.0634882 0.0391693,0.0391772 0.0634882,0.0932835 0.0634882,0.152866l0 0.432543c0,0.397059 -0.162382,0.75798 -0.423984,1.01959 -0.261606,0.261602 -0.62252,0.423984 -1.01959,0.423984l-0.91589 0 -0.08 0 0 -0.08 0 -0.22115c0,-0.033063 -0.0135866,-0.063185 -0.0354685,-0.0850669 -0.0218858,-0.0218858 -0.0520079,-0.0354724 -0.0850709,-0.0354724l-3.93701e-006 0c-0.033063,0 -0.063185,0.0135866 -0.0850709,0.0354724 -0.0218819,0.0218819 -0.0354685,0.0520039 -0.0354685,0.0850669l0 0.22115 0 0.08 -0.08 0 -0.915886 0c-0.397067,0 -0.75798,-0.162382 -1.01959,-0.423984 -0.261602,-0.261606 -0.423984,-0.622528 -0.423984,-1.01959l0 -0.432543c0,-0.0595827 0.0243189,-0.113689 0.0634882,-0.152866 0.0391772,-0.0391693 0.0932835,-0.0634882 0.152866,-0.0634882zm4.68729 0.16l-4.68729 0c-0.0154134,0 -0.0294921,0.00636614 -0.0397402,0.0166142 -0.010248,0.010248 -0.0166142,0.0243268 -0.0166142,0.0397402l0 0.432543c0,0.352894 0.144429,0.673776 0.37711,0.906461 0.232685,0.232681 0.553563,0.37711 0.906461,0.37711l0.835886 0 0 -0.14115c0,-0.0772323 0.0315394,-0.14739 0.0823425,-0.198193 0.050811,-0.050811 0.120965,-0.0823465 0.198197,-0.0823465l3.93701e-006 0c0.0772323,0 0.147386,0.0315354 0.198197,0.0823465 0.0508031,0.0508031 0.0823425,0.120961 0.0823425,0.198193l0 0.14115 0.83589 0c0.352898,0 0.673776,-0.144429 0.906461,-0.37711 0.232681,-0.232685 0.37711,-0.553567 0.37711,-0.906461l0 -0.432543c0,-0.0154134 -0.00636614,-0.0294921 -0.0166142,-0.0397402 -0.010248,-0.010248 -0.0243268,-0.0166142 -0.0397402,-0.0166142z"/><path class="fil0" d="M2.81222 1.88631l1.20222 0 0 -0.0762402c0,-0.0809016 -0.0331575,-0.154512 -0.0865709,-0.207921 -0.0534094,-0.0534134 -0.12702,-0.0865709 -0.207921,-0.0865709l-0.613236 0c-0.0809016,0 -0.154512,0.0331575 -0.207921,0.0865709 -0.0534134,0.0534094 -0.0865709,0.12702 -0.0865709,0.207921l0 0.0762402zm1.24477 0.16l-1.28732 0c-0.0323819,0 -0.0617677,-0.0131929 -0.0830118,-0.034437 -0.0212441,-0.0212441 -0.034437,-0.0506299 -0.034437,-0.0830118l0 -0.118791c0,-0.125071 0.0511102,-0.238717 0.133445,-0.321047 0.0823307,-0.0823346 0.195976,-0.133445 0.321047,-0.133445l0.613236 0c0.125071,0 0.238717,0.0511102 0.321047,0.133445 0.0823346,0.0823307 0.133445,0.195976 0.133445,0.321047l0 0.118791c0,0.0323819 -0.0131929,0.0617677 -0.034437,0.0830118 -0.0212441,0.0212441 -0.0506299,0.034437 -0.0830118,0.034437z"/></g></g><rect class="fil1" width="6.82666" height="6.82666"/><text x="0" y="21.82666" fill="#000000" font-size="5px" font-weight="bold" font-family="'Helvetica Neue', Helvetica, Arial-Unicode, Arial, Sans-serif">Created by IYIKON</text><text x="0" y="26.82666" fill="#000000" font-size="5px" font-weight="bold" font-family="'Helvetica Neue', Helvetica, Arial-Unicode, Arial, Sans-serif">from the Noun Project</text></svg>