<?xml version="1.0" encoding="UTF-8"?>
<svg width="24px" height="21px" viewBox="0 0 24 21" version="1.1" xmlns="http://www.w3.org/2000/svg" xmlns:xlink="http://www.w3.org/1999/xlink">
    <!-- Generator: Sketch 51 (57462) - http://www.bohemiancoding.com/sketch -->
    <title>ico_sm_awards</title>
    <desc>Created with Sketch.</desc>
    <defs></defs>
    <g id="Page-1" stroke="none" stroke-width="1" fill="none" fill-rule="evenodd">
        <path d="M17.4942274,6.24182068 C17.341627,6.02818007 17.2195466,5.84505956 17.1585065,5.66193904 C17.0974663,5.47881852 17.0974663,5.23465783 17.0974663,4.95997705 C17.0974663,4.53269584 17.0669462,4.10541463 16.8227855,3.76969368 C16.5786248,3.40345264 16.1513436,3.28137229 15.7545825,3.12877186 C15.5104218,3.0372116 15.2967812,2.97617143 15.1441807,2.85409108 C14.9915803,2.73201074 14.8389799,2.54889022 14.6863795,2.3657697 C14.4422188,2.06056883 14.167538,1.6943278 13.7402568,1.54172736 C13.3434956,1.41964702 12.9162144,1.54172736 12.5194533,1.66380771 C12.3058127,1.75536797 12.061652,1.81640814 11.8480114,1.81640814 C11.6343708,1.81640814 11.3902101,1.75536797 11.1460494,1.66380771 C10.7492883,1.54172736 10.3525272,1.41964702 9.92524596,1.54172736 C9.49796475,1.66380771 9.22328398,2.03004875 8.97912328,2.3657697 C8.82652285,2.5794103 8.67392242,2.76253082 8.52132199,2.85409108 C8.36872155,2.97617143 8.12456086,3.0372116 7.91092026,3.12877186 C7.54467922,3.25085221 7.11739801,3.40345264 6.84271723,3.76969368 C6.59855654,4.10541463 6.56803645,4.56321592 6.56803645,4.95997705 C6.56803645,5.20413774 6.56803645,5.44829843 6.50699628,5.66193904 C6.44595611,5.84505956 6.32387576,6.02818007 6.17127533,6.24182068 C5.92711464,6.57754163 5.68295395,6.94378267 5.68295395,7.40158397 C5.68295395,7.85938526 5.95763472,8.2256263 6.17127533,8.56134725 C6.32387576,8.77498786 6.44595611,8.95810838 6.50699628,9.14122889 C6.56803645,9.32434941 6.56803645,9.5685101 6.56803645,9.84319088 C6.56803645,10.2704721 6.59855654,10.6977533 6.84271723,11.0334743 C7.08687792,11.3691952 7.48363905,11.5217956 7.84988008,11.643876 L7.84988008,19.2128574 C7.84988008,19.4570181 7.97196043,19.6706587 8.18560104,19.762219 C8.27716129,19.7927391 8.36872155,19.8232592 8.46028181,19.8232592 C8.61288225,19.8232592 8.73496259,19.762219 8.85704294,19.6706587 L11.8480114,17.1985317 L14.8084598,19.6706587 C14.9915803,19.8232592 15.235741,19.8537792 15.4493816,19.762219 C15.6630222,19.6706587 15.7851026,19.4570181 15.7851026,19.2128574 L15.7851026,11.643876 C16.1513436,11.5217956 16.5481047,11.3691952 16.7922654,11.0334743 C17.0364261,10.6977533 17.0669462,10.239952 17.0669462,9.84319088 C17.0669462,9.59903019 17.0669462,9.3548695 17.1279864,9.14122889 C17.1890265,8.95810838 17.3111069,8.77498786 17.4637073,8.56134725 C17.707868,8.2256263 17.9520287,7.85938526 17.9520287,7.40158397 C17.9825488,6.97430276 17.7383881,6.57754163 17.4942274,6.24182068 Z M12.061652,16.58813 C11.9395717,16.4965697 11.7869712,16.4965697 11.6648909,16.58813 L8.4908019,19.2128574 L8.4908019,11.8880367 C8.52132199,11.9185568 8.55184207,11.9185568 8.58236216,11.9490768 C8.73496259,12.0711572 8.88756302,12.2542777 9.04016346,12.4373982 C9.28432415,12.7425991 9.55900493,13.1088401 9.98628614,13.2614406 C10.3830473,13.3835209 10.8103285,13.2614406 11.2070896,13.1393602 C11.4512503,13.07832 11.695411,12.9867598 11.9090516,12.9867598 C12.1226922,12.9867598 12.3668529,13.0478 12.6110136,13.1393602 C12.8856944,13.2309205 13.1603751,13.2919607 13.4350559,13.2919607 C13.5571363,13.2919607 13.6792166,13.2614406 13.8012969,13.2309205 C14.2285782,13.1088401 14.5032589,12.7425991 14.7474196,12.4068781 C14.9000201,12.1932375 15.0526205,12.010117 15.2052209,11.9185568 C15.235741,11.8880367 15.2662611,11.8880367 15.2967812,11.8575166 L15.2967812,19.1823373 L12.061652,16.58813 Z M17.005906,8.2256263 C16.8533056,8.46978699 16.6701851,8.6834276 16.5786248,8.95810838 C16.4870646,9.23278915 16.4870646,9.53799002 16.4870646,9.8126708 C16.4870646,10.1483917 16.4870646,10.4535926 16.3344641,10.6672332 C16.1818637,10.8503537 15.8766628,10.9724341 15.571462,11.0945144 C15.2967812,11.1860747 15.0221004,11.2776349 14.7779397,11.4607555 C14.533779,11.6133559 14.3811786,11.8575166 14.1980581,12.1016773 C13.9844175,12.3763581 13.8012969,12.6205188 13.5571363,12.712079 C13.3434956,12.7731192 13.0382948,12.6815589 12.7025738,12.5899987 C12.4278931,12.4984384 12.1226922,12.4068781 11.8480114,12.4068781 C11.5428105,12.4068781 11.2681298,12.4984384 10.993449,12.5899987 C10.6882481,12.6815589 10.3830473,12.7731192 10.1388866,12.712079 C9.89472588,12.6205188 9.71160536,12.3763581 9.49796475,12.1016773 C9.31484423,11.8880367 9.1622438,11.643876 8.91808311,11.4607555 C8.67392242,11.2776349 8.39924164,11.1860747 8.12456086,11.0945144 C7.81936,10.9724341 7.51415913,10.8808738 7.3615587,10.6672332 C7.20895827,10.4841127 7.20895827,10.1483917 7.20895827,9.8126708 C7.20895827,9.53799002 7.20895827,9.23278915 7.11739801,8.95810838 C7.02583775,8.6834276 6.87323732,8.46978699 6.6901168,8.2256263 C6.50699628,7.95094552 6.29335567,7.67626474 6.29335567,7.43210405 C6.29335567,7.18794336 6.47647619,6.91326258 6.6901168,6.6385818 C6.84271723,6.39442111 7.02583775,6.18078051 7.11739801,5.90609973 C7.20895827,5.63141895 7.20895827,5.32621809 7.20895827,5.05153731 C7.20895827,4.71581636 7.20895827,4.41061549 7.3615587,4.19697489 C7.51415913,4.01385437 7.81936,3.89177402 8.12456086,3.76969368 C8.39924164,3.67813342 8.67392242,3.58657316 8.91808311,3.40345264 C9.1622438,3.25085221 9.31484423,3.00669152 9.49796475,2.76253082 C9.71160536,2.48785005 9.89472588,2.24368935 10.1388866,2.15212909 C10.3525272,2.09108892 10.657728,2.18264918 10.993449,2.27420944 C11.2681298,2.33524961 11.5428105,2.42680987 11.8480114,2.42680987 C12.1532123,2.42680987 12.4278931,2.33524961 12.7025738,2.24368935 C13.0077747,2.15212909 13.3129756,2.06056883 13.5571363,2.12160901 C13.8012969,2.21316927 13.9844175,2.45732996 14.1980581,2.73201074 C14.3811786,2.94565134 14.533779,3.18981203 14.7779397,3.37293255 C15.0221004,3.55605307 15.2967812,3.64761333 15.571462,3.73917359 C15.8766628,3.86125394 16.1818637,3.9528142 16.3344641,4.1664548 C16.4870646,4.34957532 16.4870646,4.68529627 16.4870646,5.02101722 C16.4870646,5.295698 16.4870646,5.60089886 16.5786248,5.87557964 C16.6701851,6.15026042 16.8227855,6.36390103 17.005906,6.60806172 C17.1890265,6.8827425 17.4026671,7.15742327 17.4026671,7.40158397 C17.3721471,7.67626474 17.1890265,7.95094552 17.005906,8.2256263 Z M15.0221004,5.78401938 L13.1908952,5.50933861 L12.3668529,3.86125394 C12.2752926,3.64761333 12.061652,3.52553298 11.8174913,3.52553298 C11.5733306,3.52553298 11.3902101,3.64761333 11.2681298,3.86125394 L10.4440874,5.50933861 L8.61288225,5.78401938 C8.39924164,5.81453947 8.18560104,5.9671399 8.12456086,6.18078051 C8.06352069,6.39442111 8.12456086,6.6385818 8.27716129,6.79118224 L9.58952501,8.07302587 L9.28432415,9.90423106 C9.25380406,10.1178717 9.34536432,10.3620324 9.52848484,10.4841127 C9.71160536,10.606193 9.95576605,10.6367131 10.1694067,10.5451529 L11.7869712,9.69059045 L13.4350559,10.5451529 C13.5266162,10.606193 13.6181764,10.606193 13.7097367,10.606193 C13.831817,10.606193 13.9538974,10.575673 14.0759777,10.4841127 C14.2590982,10.3620324 14.3506585,10.1178717 14.3201384,9.90423106 L14.0149376,8.10354595 L15.3273013,6.82170232 C15.4799017,6.66910189 15.5409419,6.4249412 15.4799017,6.21130059 C15.4493816,5.9671399 15.2662611,5.81453947 15.0221004,5.78401938 Z M13.6181764,7.64574466 C13.465576,7.79834509 13.4045358,7.98146561 13.4350559,8.16458613 L13.7707769,9.96527123 L12.1226922,9.14122889 C11.9395717,9.04966863 11.7259311,9.04966863 11.5733306,9.14122889 L9.95576605,10.0263114 L10.2609669,8.19510621 C10.291487,8.0119857 10.2304468,7.79834509 10.0778464,7.67626474 L8.76548268,6.39442111 L10.5966879,6.11974033 C10.7798084,6.08922025 10.9629289,5.9671399 11.0544892,5.78401938 L11.8480114,4.13593471 L12.6720537,5.78401938 C12.763614,5.9671399 12.9162144,6.08922025 13.129855,6.11974033 L14.9305401,6.39442111 L13.6181764,7.64574466 Z" id="Shape-Copy-2" fill="#000000" fill-rule="nonzero"></path>
    </g>
</svg>