<?xml version="1.0" encoding="UTF-8"?>
<svg width="24px" height="21px" viewBox="0 0 24 21" version="1.1" xmlns="http://www.w3.org/2000/svg" xmlns:xlink="http://www.w3.org/1999/xlink">
    <!-- Generator: Sketch 51 (57462) - http://www.bohemiancoding.com/sketch -->
    <title>ico_sm_other</title>
    <desc>Created with Sketch.</desc>
    <defs></defs>
    <g id="Page-1" stroke="none" stroke-width="1" fill="none" fill-rule="evenodd">
        <g id="rocket-copy" transform="translate(3.818788, 2.985182)" fill="#000000" fill-rule="nonzero">
            <path d="M14.5588985,0.00153652317 C13.224172,0.0793870304 10.8213912,0.308158258 9.72397224,0.967497423 C8.31378542,1.81480459 6.92220761,3.40544752 5.79952134,4.9324101 L3.56012418,5.22520313 C3.12801972,5.28171303 2.751913,5.56528692 2.57862733,5.9651244 L2.05347785,7.17709973 C2.011821,7.27304706 2.0166013,7.38265238 2.06611149,7.47450232 C2.11562168,7.56652299 2.2045693,7.63088624 2.30734563,7.64898306 L3.83362531,7.91872824 C3.72026404,8.11062291 3.62346308,8.27810394 3.54731982,8.41229363 C3.34347442,8.7714986 3.40544752,9.22648019 3.69806982,9.51910249 L3.78326149,9.60429416 L3.42132493,9.96623073 C3.05682748,10.3308989 3.05682748,10.9243383 3.42132493,11.2891772 L4.24677932,12.1148023 C4.42347948,12.2915025 4.6583968,12.3886449 4.9083379,12.3886449 C5.15810828,12.3886449 5.3930256,12.2913317 5.56972577,12.1146316 L5.93149161,11.7528657 L6.01668328,11.8380574 C6.19133475,12.0127089 6.42317902,12.1088269 6.66936418,12.1088269 C6.82813824,12.1088269 6.98503433,12.0673408 7.12349214,11.9888074 C7.25768183,11.9126641 7.42499213,11.8160339 7.6168868,11.7025019 L7.88663198,13.2287816 C7.90472881,13.3317286 7.96909206,13.4206763 8.06111272,13.4700157 C8.11147654,13.497161 8.16713282,13.510819 8.22278911,13.510819 C8.2688848,13.510819 8.31515122,13.5014291 8.35851532,13.4826494 L9.57049065,12.9576706 C9.97032812,12.7843849 10.253902,12.4082782 10.3104119,11.9761738 L10.6032049,9.7367766 C12.1301675,8.61391962 13.7206397,7.22251252 14.5681176,5.8123257 C15.2274568,4.71490671 15.4563987,2.31212592 15.5340785,0.977399461 C15.5489316,0.720629367 15.4601547,0.476492907 15.2841374,0.28971998 C15.0985596,0.092362115 14.8342776,-0.0143408829 14.5588985,0.00153652317 Z M2.85195773,7.05178773 L3.20518733,6.23657682 C3.28337929,6.05594999 3.45325046,5.92790639 3.64855963,5.90229767 L5.25781156,5.69196472 C4.85643757,6.27242903 4.50337869,6.82130925 4.21246363,7.29233896 L2.85195773,7.05178773 Z M5.08725749,11.6314804 C4.99182233,11.7269156 4.82536565,11.7269156 4.73010122,11.6314804 L3.90464682,10.806026 C3.80613862,10.7075178 3.80613862,10.5472072 3.90464682,10.4488697 L4.26658339,10.0871039 L5.44919406,11.2697146 L5.08725749,11.6314804 Z M9.63382955,11.8875676 C9.60822083,12.0828768 9.48017723,12.2527479 9.2995504,12.3309399 L8.48433949,12.6841695 L8.24378826,11.3236636 C8.71464725,11.0329193 9.26369819,10.6796897 9.8441625,10.2783157 L9.63382955,11.8875676 Z M13.9832145,5.4604619 C12.4195461,8.0629907 8.07972173,10.6605685 6.78682284,11.3948558 C6.6949729,11.4467562 6.57478264,11.4296837 6.50000518,11.355077 L6.1737501,11.0288219 C6.17357937,11.0286511 6.17357937,11.0284804 6.17340865,11.0283097 L4.50781753,9.36271857 C4.50764681,9.36254785 4.50747608,9.36254785 4.50730536,9.36237712 L4.18105027,9.03612204 C4.10507774,8.95997878 4.08851743,8.84200794 4.14127139,8.74930438 C4.87538802,7.45640549 7.47313652,3.11658116 10.0756653,1.55291275 C11.083966,0.947181172 13.5744993,0.742994315 14.6133597,0.682899187 C14.6799424,0.682899187 14.7419155,0.70970298 14.7878404,0.758188822 C14.8335947,0.806674664 14.8566425,0.870355013 14.8527159,0.937449858 C14.7931329,1.96162791 14.588946,4.45216125 13.9832145,5.4604619 Z" id="Shape"></path>
            <path d="M11.1667675,2.60560185 C10.6955671,2.60560185 10.2527069,2.789131 9.91945214,3.12221508 C9.23194338,3.80989456 9.23194338,4.9289956 9.91945214,5.61650436 C10.2525362,5.94958844 10.6953963,6.1331176 11.1665968,6.1331176 C11.6376265,6.1331176 12.0806573,5.94975916 12.4137414,5.61650436 C13.1014209,4.92882488 13.1014209,3.80989456 12.4137414,3.12204436 C12.0808281,2.78896028 11.6379679,2.60560185 11.1667675,2.60560185 Z M11.9311024,5.13352391 C11.7269156,5.33771077 11.4554631,5.45004768 11.1667675,5.45004768 C10.8780719,5.45004768 10.6066194,5.33771077 10.4024326,5.13352391 C9.98108379,4.71200439 9.98108379,4.0263736 10.4024326,3.60485408 C10.6066194,3.40066722 10.8780719,3.28833031 11.1667675,3.28833031 C11.4554631,3.28833031 11.7269156,3.40066722 11.9311024,3.60485408 C12.3526219,4.0263736 12.3526219,4.71217511 11.9311024,5.13352391 Z" id="Shape"></path>
            <path d="M2.1832287,11.4643408 C1.67873693,11.4643408 1.20446344,11.6608451 0.84781934,12.0174892 C0.175675816,12.689462 0.166115227,14.6430658 0.171066246,15.0278795 C0.173456393,15.2129452 0.323011315,15.3625001 0.50824772,15.365061 L0.555879938,15.3652317 C1.24321797,15.3652317 2.90778474,15.2993319 3.51863806,14.6884786 C3.87528216,14.3318345 4.0717864,13.857561 4.0717864,13.3530692 C4.0717864,12.8485775 3.87528216,12.374304 3.51863806,12.0176599 C3.16199396,11.6610158 2.68772047,11.4643408 2.1832287,11.4643408 Z M3.03582833,14.2054982 C2.74166951,14.499657 1.75453874,14.6498948 0.857550654,14.6775522 C0.882988648,13.8568781 1.02878762,12.8019696 1.33062907,12.5002989 C1.55837594,12.272552 1.86107101,12.14724 2.1832287,12.14724 C2.50538639,12.14724 2.80808146,12.272552 3.03582833,12.5002989 C3.26357521,12.7280458 3.38888721,13.0307408 3.38888721,13.3528985 C3.38888721,13.6750562 3.26357521,13.9777513 3.03582833,14.2054982 Z" id="Shape"></path>
        </g>
    </g>
</svg>