<?xml version="1.0" encoding="UTF-8"?>
<svg width="50px" height="51px" viewBox="0 0 50 51" version="1.1" xmlns="http://www.w3.org/2000/svg" xmlns:xlink="http://www.w3.org/1999/xlink">
    <!-- Generator: Sketch 51 (57462) - http://www.bohemiancoding.com/sketch -->
    <title>ico_teaching</title>
    <desc>Created with Sketch.</desc>
    <defs></defs>
    <g id="Page-1" stroke="none" stroke-width="1" fill="none" fill-rule="evenodd">
        <g id="noun_3D_1410926" transform="translate(8.500000, 6.960938)" fill="#2691D5" fill-rule="nonzero">
            <g id="Group">
                <path d="M32.820025,9.71924427 L16.526088,0.321945312 L0.240473437,9.73369896 L0.249233854,28.5436276 L16.5427328,37.9409266 L32.8279094,28.5287349 L32.820025,9.71924427 Z M31.7328573,27.8335958 L31.6776667,27.9295224 L17.0906969,36.3601094 L17.0906969,19.4468109 L31.7254109,10.9886286 L31.7328573,27.8335958 Z M15.979876,2.2685099 L17.0749281,2.26763385 L17.0744901,1.90232448 L31.180951,10.0385615 L16.5422948,18.4989339 L1.88743177,10.0468839 L15.979438,1.9027625 L15.979876,2.2685099 Z M1.34384792,27.8752078 L1.33596354,10.9930089 L15.9947688,19.447687 L15.9947688,36.3609854 L1.37450938,27.9282083 L1.34384792,27.8752078 Z" id="Shape"></path>
                <rect id="Rectangle-path" transform="translate(14.272743, 20.434658) rotate(-30.026305) translate(-14.272743, -20.434658) " x="13.6242496" y="19.8871296" width="1.29698604" height="1.09505745"></rect>
                <rect id="Rectangle-path" transform="translate(3.042896, 26.923228) rotate(-120.031265) translate(-3.042896, -26.923228) " x="2.49533983" y="26.2747029" width="1.09511225" height="1.29705095"></rect>
                <rect id="Rectangle-path" transform="translate(7.535110, 24.326824) rotate(-120.031265) translate(-7.535110, -24.326824) " x="6.98755429" y="23.678299" width="1.09511225" height="1.29705095"></rect>
                <rect id="Rectangle-path" transform="translate(5.288806, 25.624917) rotate(-120.031265) translate(-5.288806, -25.624917) " x="4.74124995" y="24.9763914" width="1.09511225" height="1.29705095"></rect>
                <rect id="Rectangle-path" transform="translate(9.781035, 23.028754) rotate(-120.031265) translate(-9.781035, -23.028754) " x="9.23347883" y="22.3800093" width="1.09511225" height="1.29748899"></rect>
                <rect id="Rectangle-path" transform="translate(12.026989, 21.730442) rotate(-120.031265) translate(-12.026989, -21.730442) " x="11.4794328" y="21.0816979" width="1.09511225" height="1.29748899"></rect>
                <rect id="Rectangle-path" transform="translate(21.028653, 21.729363) rotate(29.972287) translate(-21.028653, -21.729363) " x="20.3801383" y="21.1818163" width="1.29702887" height="1.09509361"></rect>
                <rect id="Rectangle-path" transform="translate(23.275501, 23.022851) rotate(29.987939) translate(-23.275501, -23.022851) " x="22.6268146" y="22.4751249" width="1.29737181" height="1.09545135"></rect>
                <rect id="Rectangle-path" transform="translate(27.770352, 25.618268) rotate(29.972287) translate(-27.770352, -25.618268) " x="27.1218372" y="25.0707208" width="1.29702887" height="1.09509361"></rect>
                <rect id="Rectangle-path" transform="translate(30.017911, 26.914472) rotate(29.972287) translate(-30.017911, -26.914472) " x="29.3693961" y="26.3669249" width="1.29702887" height="1.09509361"></rect>
                <rect id="Rectangle-path" transform="translate(25.523729, 24.320534) rotate(29.980112) translate(-25.523729, -24.320534) " x="24.8752382" y="23.7727878" width="1.29698133" height="1.09549149"></rect>
                <rect id="Rectangle-path" transform="translate(18.781096, 20.434367) rotate(119.946709) translate(-18.781096, -20.434367) " x="18.233564" y="19.7858697" width="1.09506462" height="1.29699453"></rect>
                <rect id="Rectangle-path" x="15.9816281" y="3.58213438" width="1.09505208" height="1.3140625"></rect>
                <rect id="Rectangle-path" x="15.9864464" y="8.83838437" width="1.09505208" height="1.3140625"></rect>
                <rect id="Rectangle-path" x="15.9842563" y="6.21025937" width="1.09505208" height="1.3140625"></rect>
                <rect id="Rectangle-path" x="15.9886365" y="11.4665094" width="1.09505208" height="1.3140625"></rect>
                <rect id="Rectangle-path" x="15.9912646" y="14.0946344" width="1.09505208" height="1.3140625"></rect>
                <rect id="Rectangle-path" x="15.9938927" y="16.7227594" width="1.09505208" height="1.3140625"></rect>
            </g>
        </g>
        <text id="3." opacity="0.789285714" style="mix-blend-mode: multiply;" font-family="RobotoCondensed-BoldItalic, Roboto Condensed" font-size="55" font-style="italic" font-weight="bold" letter-spacing="-2.52083349" fill="#E75582">
            <tspan x="8.99617529" y="45.7809449">3.</tspan>
        </text>
    </g>
</svg>