<?xml version="1.0" encoding="UTF-8"?>
<svg width="50px" height="50px" viewBox="0 0 50 50" version="1.1" xmlns="http://www.w3.org/2000/svg" xmlns:xlink="http://www.w3.org/1999/xlink">
    <!-- Generator: Sketch 51 (57462) - http://www.bohemiancoding.com/sketch -->
    <title>ico_talks</title>
    <desc>Created with Sketch.</desc>
    <defs></defs>
    <g id="Page-1" stroke="none" stroke-width="1" fill="none" fill-rule="evenodd">
        <path d="M34.5929937,21.2743383 C34.2480677,21.2743383 33.9683287,21.5540773 33.9683287,21.8984899 L33.9683287,27.2838509 L32.5537219,27.2838509 L32.5537219,14.3927585 C32.5537219,10.6524683 29.5109827,7.60921575 25.7706924,7.60921575 L24.2308446,7.60921575 C20.4905544,7.60921575 17.4478151,10.6524683 17.4478151,14.3927585 L17.4478151,27.2843642 L16.0332083,27.2843642 L16.0332083,21.8990032 C16.0332083,21.5545906 15.7534693,21.2748516 15.4085434,21.2748516 C15.064644,21.2748516 14.784905,21.5545906 14.784905,21.8990032 L14.784905,29.4699215 C14.784905,34.0586679 18.8901392,37.7927988 23.9346806,37.7927988 L24.2534291,37.7927988 L24.2534291,40.6543492 C24.2534291,40.7031111 24.2585619,40.7508464 24.2672877,40.7975551 L24.3021909,40.9715579 L19.9151646,40.9715579 C19.4819541,40.9715579 19.142161,41.2826071 19.142161,41.6804011 C19.142161,42.0781951 19.4819541,42.3907842 19.9151646,42.3907842 L30.0114332,42.3907842 C30.4446437,42.3907842 30.7834102,42.0787084 30.7834102,41.6804011 C30.7834102,41.2831204 30.4446437,40.9715579 30.0114332,40.9715579 L25.6203006,40.9715579 L25.6582835,40.7949887 C25.6675226,40.7508464 25.6721422,40.7025978 25.6721422,40.6543492 L25.6721422,37.7927988 L26.0653166,37.7927988 C31.1108845,37.7927988 35.2150922,34.0591812 35.2150922,29.4699215 L35.2150922,21.8990032 C35.2161187,21.5545906 34.9363797,21.2743383 34.5929937,21.2743383 Z M24.2539423,36.5439822 L23.9351938,36.5439822 C19.5784512,36.5439822 16.0332083,33.3698426 16.0332083,29.4694082 L16.0332083,28.9602319 L17.4888777,28.9602319 L17.5047895,29.0875259 C17.917982,32.4146237 20.756948,34.9682046 24.1102232,35.0272321 L24.2534291,35.0292853 L24.2534291,36.5439822 L24.2539423,36.5439822 Z M24.2308446,33.7850883 C21.178353,33.7850883 18.6961184,31.3018271 18.6961184,28.250362 L18.6961184,24.1215168 L22.2993622,24.1215168 C22.7243602,24.1215168 23.0692861,23.7771042 23.0692861,23.3515929 C23.0692861,22.9260817 22.7243602,22.5816691 22.2993622,22.5816691 L18.6961184,22.5816691 L18.6961184,20.2344277 L22.2993622,20.2344277 C22.7243602,20.2344277 23.0692861,19.8900151 23.0692861,19.4645039 C23.0692861,19.0389926 22.7243602,18.69458 22.2993622,18.69458 L18.6961184,18.69458 L18.6961184,16.3468254 L22.2993622,16.3468254 C22.7243602,16.3468254 23.0692861,16.0024127 23.0692861,15.5769015 C23.0692861,15.1513902 22.7243602,14.8069776 22.2993622,14.8069776 L18.6961184,14.8069776 L18.6961184,14.3927585 C18.6961184,11.3407802 21.178353,8.85751903 24.2308446,8.85751903 L25.7706924,8.85751903 C28.8221574,8.85751903 31.3054186,11.3407802 31.3054186,14.3927585 L31.3054186,14.8069776 L27.7032014,14.8069776 C27.2782034,14.8069776 26.9332775,15.1513902 26.9332775,15.5769015 C26.9332775,16.0024127 27.2782034,16.3468254 27.7032014,16.3468254 L31.3054186,16.3468254 L31.3054186,18.69458 L27.7032014,18.69458 C27.2782034,18.69458 26.9332775,19.0389926 26.9332775,19.4645039 C26.9332775,19.8900151 27.2782034,20.2344277 27.7032014,20.2344277 L31.3054186,20.2344277 L31.3054186,22.5816691 L27.7032014,22.5816691 C27.2782034,22.5816691 26.9332775,22.9260817 26.9332775,23.3515929 C26.9332775,23.7771042 27.2782034,24.1215168 27.7032014,24.1215168 L31.3054186,24.1215168 L31.3054186,28.250362 C31.3054186,31.3018271 28.8221574,33.7850883 25.7706924,33.7850883 L24.2308446,33.7850883 Z M33.9683287,29.4694082 C33.9683287,33.3703559 30.4235991,36.5439822 26.0663432,36.5439822 L25.6731687,36.5439822 L25.6731687,35.0318517 L25.8174011,35.0308251 C29.2076327,35.0072141 32.0789355,32.4526066 32.4962343,29.0875259 L32.512146,28.9602319 L33.9678155,28.9602319 L33.9678155,29.4694082 L33.9683287,29.4694082 Z" id="Shape" fill="#2691D5" fill-rule="nonzero"></path>
        <text id="4." opacity="0.789285714" style="mix-blend-mode: multiply;" font-family="RobotoCondensed-BoldItalic, Roboto Condensed" font-size="55" font-style="italic" font-weight="bold" letter-spacing="-2.52083349" fill="#E75582">
            <tspan x="8.99617529" y="43.7809449">4.</tspan>
        </text>
    </g>
</svg>