<?xml version="1.0" encoding="UTF-8"?>
<svg width="24px" height="21px" viewBox="0 0 24 21" version="1.1" xmlns="http://www.w3.org/2000/svg" xmlns:xlink="http://www.w3.org/1999/xlink">
    <!-- Generator: Sketch 51 (57462) - http://www.bohemiancoding.com/sketch -->
    <title>ico_sm_publications</title>
    <desc>Created with Sketch.</desc>
    <defs></defs>
    <g id="Page-1" stroke="none" stroke-width="1" fill="none" fill-rule="evenodd">
        <g id="book" transform="translate(4.102240, 1.387678)" fill="#000000" fill-rule="nonzero">
            <path d="M13.7242834,18.3000612 L2.28750766,18.3000612 C1.02632844,18.3000612 0,17.2737328 0,16.0125536 L0,1.52653011 C0,0.684727292 0.684727292,0 1.52653011,0 L12.1992783,0 C13.0410811,0 13.7250459,0.683964789 13.7250459,1.52576761 L13.7280959,2.28750766 C14.5668488,2.28750766 15.250051,2.97070994 15.250051,3.81022525 L15.250051,16.7742936 C15.250051,17.6160965 14.5660863,18.3000612 13.7242834,18.3000612 Z M0.762502552,16.0125536 C0.762502552,16.8535939 1.44646734,17.5375587 2.28750766,17.5375587 L13.7242834,17.5375587 C14.1451848,17.5375587 14.4875485,17.1951951 14.4875485,16.7742936 L14.4875485,3.81022525 C14.4875485,3.39084885 14.1467098,3.05001021 13.7280959,3.05001021 L13.7250459,3.05001021 L13.7250459,12.9602559 C13.7250459,13.8028212 13.0403186,14.4875485 12.1977533,14.4875485 L2.28750766,14.4875485 C1.44646734,14.4875485 0.762502552,15.1715133 0.762502552,16.0125536 Z M1.52653011,0.762502552 C1.1056287,0.762502552 0.762502552,1.1056287 0.762502552,1.52653011 L0.762502552,14.3083604 C1.16739141,13.9461717 1.7019057,13.7250459 2.28750766,13.7250459 L12.1977533,13.7250459 C12.6194172,13.7250459 12.9625434,13.3819198 12.9625434,12.9602559 L12.9625434,1.52576761 C12.9625434,1.1048662 12.6201797,0.762502552 12.1992783,0.762502552 L1.52653011,0.762502552 Z" id="Shape"></path>
            <rect id="Rectangle-path" x="3.81251276" y="6.86252297" width="6.10002042" height="1"></rect>
            <rect id="Rectangle-path" x="3.81251276" y="4.57501531" width="6.10002042" height="1"></rect>
            <path d="M12.8893431,16.3938049 L2.28750766,16.3938049 L2.28750766,15.6313023 L12.8893431,15.6313023 C12.9297558,15.6313023 12.9625434,15.5985147 12.9625434,15.5581021 L12.9625434,12.8039429 L13.7250459,12.8039429 L13.7250459,15.5581021 C13.7250459,16.0194161 13.3506572,16.3938049 12.8893431,16.3938049 Z" id="Shape"></path>
        </g>
    </g>
</svg>