<?xml version="1.0" encoding="UTF-8"?>
<svg width="25px" height="21px" viewBox="0 0 25 21" version="1.1" xmlns="http://www.w3.org/2000/svg" xmlns:xlink="http://www.w3.org/1999/xlink">
    <!-- Generator: Sketch 51 (57462) - http://www.bohemiancoding.com/sketch -->
    <title>ico_sm_work</title>
    <desc>Created with Sketch.</desc>
    <defs></defs>
    <g id="Page-1" stroke="none" stroke-width="1" fill="none" fill-rule="evenodd" opacity="0.79" stroke-linecap="round" stroke-linejoin="round">
        <g id="noun_Briefcase_1392590-Copy" transform="translate(5.018983, 3.485182)" stroke="#000000" stroke-width="0.75">
            <g id="Group">
                <path d="M16.13436,3.41205453 L16.13436,13.2889433 C16.13436,13.711437 15.7917031,14.0540737 15.3725392,14.0540737 L0.928137656,14.0540737 C0.508973802,14.0540737 0.166337228,13.711437 0.166337228,13.2889433 L0.166337228,3.41205453 C0.166337228,3.24239136 0.222884953,3.08604755 0.312711568,2.95963241 C0.452426077,2.77000971 0.675307371,2.6469245 0.928137656,2.6469245 L15.3725391,2.6469245 C15.6253694,2.6469245 15.8482507,2.77000971 15.9879855,2.95963241 C16.077792,3.08604755 16.13436,3.24239136 16.13436,3.41205453 Z" id="Shape"></path>
                <g transform="translate(0.000000, 3.992006)" id="Shape">
                    <path d="M0.16632991,0.31492936 C1.89952557,2.2044788 3.89220212,3.3987539 5.95141188,3.8911011"></path>
                    <path d="M10.3492711,3.8911011 C12.4084802,3.3987539 14.4011569,2.2044788 16.1343524,0.31492936"></path>
                    <path d="M10.3929141,4.15258229 C10.3929141,4.86450437 9.38831438,5.43800695 8.15034994,5.43800695 C6.91238551,5.43800695 5.90776172,4.86450437 5.90776172,4.15258229 C5.90776172,4.0655564 5.92359788,3.97855463 5.95128673,3.89152874 C6.1608972,3.31013343 7.06661834,2.86715826 8.15034998,2.86715826 C9.23405749,2.86715826 10.139778,3.31013343 10.3494132,3.89152874 C10.377102,3.97855463 10.3929141,4.0655564 10.3929141,4.15258229 Z"></path>
                </g>
                <path d="M10.7770326,2.64692447 L5.52366421,2.64692447 L5.52366421,1.49241587 C5.52366421,0.806587471 6.07963776,0.250613757 6.76546616,0.250613757 L9.53523063,0.250613757 C10.221059,0.250613757 10.7770326,0.806587471 10.7770326,1.49241587 L10.7770326,2.64692447 Z" id="Shape"></path>
            </g>
        </g>
    </g>
</svg>