<?xml version="1.0" encoding="UTF-8"?>
<svg width="25px" height="21px" viewBox="0 0 25 21" version="1.1" xmlns="http://www.w3.org/2000/svg" xmlns:xlink="http://www.w3.org/1999/xlink">
    <!-- Generator: Sketch 51 (57462) - http://www.bohemiancoding.com/sketch -->
    <title>ico_sm_education</title>
    <desc>Created with Sketch.</desc>
    <defs></defs>
    <g id="Page-1" stroke="none" stroke-width="1" fill="none" fill-rule="evenodd">
        <path d="M23.1155258,7.00944271 L12.9443355,1.92265181 C12.7062066,1.81604211 12.4339146,1.81604211 12.1957857,1.92265181 L2.02698694,7.00944271 C1.89706636,7.05179526 1.80914575,7.17293059 1.80914575,7.30958012 C1.80914575,7.44622964 1.89706636,7.56736498 2.02698694,7.60971752 L3.56474272,8.37739964 L3.48343059,8.37739964 L3.48343059,16.8769083 C3.36941652,16.9421244 3.2770997,17.0394313 3.21797042,17.1567176 L2.55312422,18.5007592 C2.44978402,18.7088157 2.46122741,18.9554893 2.58338612,19.1530847 C2.70554483,19.35068 2.92109239,19.471171 3.15339902,19.4717217 L4.49983216,19.4717217 C4.73325222,19.4724139 4.95031202,19.3519328 5.07319108,19.1534734 C5.19607013,18.955014 5.20716521,18.7070068 5.1024985,18.4983677 L4.44004383,17.1567176 C4.38091455,17.0394313 4.28859773,16.9421244 4.17458366,16.8769083 L4.17458366,8.67634128 L5.84865683,9.51816093 L5.84865683,13.6746455 C5.84865683,14.6169095 6.56611676,15.4922106 7.8623277,16.1403161 C9.12505717,16.7716808 10.7991303,17.1184531 12.5760394,17.1184531 C14.3529485,17.1184531 16.0270217,16.7716808 17.2897512,16.1403161 C18.5883536,15.4922106 19.303422,14.614518 19.303422,13.6746455 L19.303422,9.51816093 L23.129875,7.60493445 C23.2597956,7.56258191 23.3477162,7.44144658 23.3477162,7.30479705 C23.3477162,7.16814752 23.2597956,7.04701219 23.129875,7.00465965 L23.1155258,7.00944271 Z M4.49983216,18.8020924 L3.15339902,18.8020924 L3.82541983,17.4580508 L4.49983216,18.8020924 Z M18.6242266,13.6746455 C18.6242266,14.3490578 18.0406926,15.0115125 16.9836349,15.5400413 C15.8141752,16.1235753 14.2453295,16.4488239 12.5712564,16.4488239 C10.8971832,16.4488239 9.32833748,16.1235753 8.1588778,15.5400413 C7.10182017,15.0115125 6.51828609,14.3442747 6.51828609,13.6746455 L6.51828609,9.8481925 L12.1957857,12.6941169 C12.4339146,12.8007266 12.7062066,12.8007266 12.9443355,12.6941169 L18.6242266,9.85297557 L18.6242266,13.6746455 Z M12.6453939,12.089059 C12.6200496,12.093167 12.5942091,12.093167 12.5688648,12.089059 C12.5442718,12.0924956 12.5193203,12.0924956 12.4947273,12.089059 L2.92859491,7.30599282 L12.4947273,2.52292662 C12.5200716,2.51881861 12.5459121,2.51881861 12.5712564,2.52292662 C12.5958494,2.51949005 12.6208009,2.51949005 12.6453939,2.52292662 L22.2115263,7.30599282 L12.6453939,12.089059 Z" id="Shape-Copy-3" fill="#000000" fill-rule="nonzero"></path>
    </g>
</svg>