<?xml version="1.0" encoding="UTF-8"?>
<svg width="24px" height="21px" viewBox="0 0 24 21" version="1.1" xmlns="http://www.w3.org/2000/svg" xmlns:xlink="http://www.w3.org/1999/xlink">
    <!-- Generator: Sketch 51 (57462) - http://www.bohemiancoding.com/sketch -->
    <title>ico_sm_talks</title>
    <desc>Created with Sketch.</desc>
    <defs></defs>
    <g id="Page-1" stroke="none" stroke-width="1" fill="none" fill-rule="evenodd">
        <path d="M16.6487369,8.79437874 C16.476274,8.79437874 16.3364045,8.93424824 16.3364045,9.10645455 L16.3364045,11.799135 L15.6291011,11.799135 L15.6291011,5.35358886 C15.6291011,3.48344372 14.1077315,1.96181747 12.2375863,1.96181747 L11.4676624,1.96181747 C9.59751729,1.96181747 8.07614768,3.48344372 8.07614768,5.35358886 L8.07614768,11.7993917 L7.36884426,11.7993917 L7.36884426,9.10671119 C7.36884426,8.93450488 7.22897475,8.79463538 7.0565118,8.79463538 C6.88456213,8.79463538 6.74469262,8.93450488 6.74469262,9.10671119 L6.74469262,12.8921703 C6.74469262,15.1865435 8.79730972,17.053609 11.3195804,17.053609 L11.4789546,17.053609 L11.4789546,18.4843842 C11.4789546,18.5087651 11.4815211,18.5326328 11.485884,18.5559871 L11.5033356,18.6429885 L9.30982239,18.6429885 C9.09321714,18.6429885 8.9233206,18.7985132 8.9233206,18.9974102 C8.9233206,19.1963072 9.09321714,19.3526017 9.30982239,19.3526017 L14.3579567,19.3526017 C14.574562,19.3526017 14.7439452,19.1965638 14.7439452,18.9974102 C14.7439452,18.7987698 14.574562,18.6429885 14.3579567,18.6429885 L12.1623904,18.6429885 L12.1813819,18.5547039 C12.1860014,18.5326328 12.1883112,18.5085085 12.1883112,18.4843842 L12.1883112,17.053609 L12.3848984,17.053609 C14.9076824,17.053609 16.9597862,15.1868002 16.9597862,12.8921703 L16.9597862,9.10671119 C16.9602995,8.93450488 16.82043,8.79437874 16.6487369,8.79437874 Z M11.4792113,16.4292007 L11.319837,16.4292007 C9.1414657,16.4292007 7.36884426,14.8421309 7.36884426,12.8919137 L7.36884426,12.6373255 L8.09667898,12.6373255 L8.10463486,12.7009726 C8.3112311,14.3645215 9.73071412,15.6413119 11.4073517,15.6708257 L11.4789546,15.6718522 L11.4789546,16.4292007 L11.4792113,16.4292007 Z M11.4676624,15.0497537 C9.94141663,15.0497537 8.70029931,13.8081231 8.70029931,12.2823906 L8.70029931,10.217968 L10.5019212,10.217968 C10.7144202,10.217968 10.8868832,10.0457617 10.8868832,9.83300607 C10.8868832,9.62025043 10.7144202,9.44804412 10.5019212,9.44804412 L8.70029931,9.44804412 L8.70029931,8.27442347 L10.5019212,8.27442347 C10.7144202,8.27442347 10.8868832,8.10221716 10.8868832,7.88946152 C10.8868832,7.67670588 10.7144202,7.50449957 10.5019212,7.50449957 L8.70029931,7.50449957 L8.70029931,6.33062228 L10.5019212,6.33062228 C10.7144202,6.33062228 10.8868832,6.15841597 10.8868832,5.94566033 C10.8868832,5.7329047 10.7144202,5.56069839 10.5019212,5.56069839 L8.70029931,5.56069839 L8.70029931,5.35358886 C8.70029931,3.8275997 9.94141663,2.58596911 11.4676624,2.58596911 L12.2375863,2.58596911 C13.7633188,2.58596911 15.0049494,3.8275997 15.0049494,5.35358886 L15.0049494,5.56069839 L13.2038408,5.56069839 C12.9913418,5.56069839 12.8188789,5.7329047 12.8188789,5.94566033 C12.8188789,6.15841597 12.9913418,6.33062228 13.2038408,6.33062228 L15.0049494,6.33062228 L15.0049494,7.50449957 L13.2038408,7.50449957 C12.9913418,7.50449957 12.8188789,7.67670588 12.8188789,7.88946152 C12.8188789,8.10221716 12.9913418,8.27442347 13.2038408,8.27442347 L15.0049494,8.27442347 L15.0049494,9.44804412 L13.2038408,9.44804412 C12.9913418,9.44804412 12.8188789,9.62025043 12.8188789,9.83300607 C12.8188789,10.0457617 12.9913418,10.217968 13.2038408,10.217968 L15.0049494,10.217968 L15.0049494,12.2823906 C15.0049494,13.8081231 13.7633188,15.0497537 12.2375863,15.0497537 L11.4676624,15.0497537 Z M16.3364045,12.8919137 C16.3364045,14.8423876 14.5640397,16.4292007 12.3854117,16.4292007 L12.1888245,16.4292007 L12.1888245,15.6731354 L12.2609407,15.6726222 C13.9560564,15.6608167 15.3917079,14.3835129 15.6003572,12.7009726 L15.6083131,12.6373255 L16.3361478,12.6373255 L16.3361478,12.8919137 L16.3364045,12.8919137 Z" id="Shape-Copy-4" fill="#000000" fill-rule="nonzero"></path>
    </g>
</svg>