<?xml version="1.0" encoding="UTF-8"?>
<svg width="25px" height="21px" viewBox="0 0 25 21" version="1.1" xmlns="http://www.w3.org/2000/svg" xmlns:xlink="http://www.w3.org/1999/xlink">
    <!-- Generator: Sketch 51 (57462) - http://www.bohemiancoding.com/sketch -->
    <title>ico_sm_work_alt</title>
    <desc>Created with Sketch.</desc>
    <defs></defs>
    <g id="Page-1" stroke="none" stroke-width="1" fill="none" fill-rule="evenodd">
        <g id="noun_Server_1901152-Copy" transform="translate(5.018983, 3.547377)" fill="#000000" fill-rule="nonzero">
            <path d="M12.7314201,14.3187941 L8.53025677,14.3187941 C8.36186511,14.3187941 8.22560474,14.1825337 8.22560474,14.014142 C8.22560474,13.8457504 8.36186511,13.70949 8.53025677,13.70949 L12.7314201,13.70949 C12.8998118,13.70949 13.0360722,13.8457504 13.0360722,14.014142 C13.0360722,14.1825337 12.8998118,14.3187941 12.7314201,14.3187941 Z" id="Shape"></path>
            <path d="M6.7023446,14.3187941 L2.50118123,14.3187941 C2.33278958,14.3187941 2.19652921,14.1825337 2.19652921,14.014142 C2.19652921,13.8457504 2.33278958,13.70949 2.50118123,13.70949 L6.7023446,13.70949 C6.87073626,13.70949 7.00699663,13.8457504 7.00699663,14.014142 C7.00699663,14.1825337 6.87073626,14.3187941 6.7023446,14.3187941 Z" id="Shape"></path>
            <path d="M7.61778824,15.2324526 C7.3354496,15.2324526 7.06144127,15.1357613 6.84098507,14.9539816 C6.55924144,14.7213274 6.39769258,14.3788914 6.39769258,14.014142 C6.39769258,13.342063 6.94422165,12.7955339 7.61630069,12.7955339 C7.97480234,12.7955339 8.31337069,12.9517276 8.54513235,13.2242484 C8.776894,13.4967691 8.87656042,13.8585434 8.81854563,14.2167475 C8.73910999,14.7070469 8.34282436,15.1155305 7.8549051,15.2095442 C7.77576698,15.2250148 7.69662886,15.2324526 7.61778824,15.2324526 Z M7.61630069,13.404838 C7.28040991,13.404838 7.00699663,13.6782513 7.00699663,14.014142 C7.00699663,14.1962192 7.08791983,14.367586 7.22894039,14.4839131 C7.37204355,14.6020252 7.55441824,14.647247 7.73947056,14.6115456 C7.97747995,14.5654313 8.17830038,14.3583631 8.2169769,14.1191637 C8.24702559,13.9350039 8.19853117,13.7573894 8.08101402,13.6190464 C7.96528196,13.4827861 7.79570027,13.404838 7.61630069,13.404838 Z" id="Shape"></path>
            <path d="M7.61630069,13.404838 C7.44790903,13.404838 7.31164866,13.2685776 7.31164866,13.1001859 L7.31164866,10.7897097 C7.31164866,10.6213181 7.44790903,10.4850577 7.61630069,10.4850577 C7.78469234,10.4850577 7.92095271,10.6213181 7.92095271,10.7897097 L7.92095271,13.1001859 C7.92095271,13.2685776 7.78469234,13.404838 7.61630069,13.404838 Z" id="Shape"></path>
            <path d="M14.1353781,11.0943617 L1.09752084,11.0943617 C0.492381927,11.0943617 0,10.6022773 0,9.99713843 L0,8.08741053 C0,7.48227165 0.492381927,6.99018721 1.09752084,6.99018721 L14.1353781,6.99018721 C14.7405169,6.99018721 15.2326014,7.48227165 15.2326014,8.08741053 L15.2326014,9.99713843 C15.2326014,10.6022773 14.7405169,11.0943617 14.1353781,11.0943617 Z M1.09752084,7.59949127 C0.8282727,7.59949127 0.609304055,7.81845991 0.609304055,8.08741053 L0.609304055,9.99713843 C0.609304055,10.266089 0.8282727,10.4850577 1.09752084,10.4850577 L14.1353781,10.4850577 C14.4043287,10.4850577 14.6232973,10.266089 14.6232973,9.99713843 L14.6232973,8.08741053 C14.6232973,7.81845991 14.4043287,7.59949127 14.1353781,7.59949127 L1.09752084,7.59949127 Z" id="Shape"></path>
            <path d="M12.9283729,9.34707525 L4.83605341,9.34707525 C4.66766176,9.34707525 4.53140138,9.21081488 4.53140138,9.04242322 C4.53140138,8.87403157 4.66766176,8.7377712 4.83605341,8.7377712 L12.9283729,8.7377712 C13.0967645,8.7377712 13.2330249,8.87403157 13.2330249,9.04242322 C13.2330249,9.21081488 13.0967645,9.34707525 12.9283729,9.34707525 Z" id="Shape"></path>
            <path d="M2.91383003,9.95637931 C2.40984512,9.95637931 1.99987395,9.54640813 1.99987395,9.04242322 C1.99987395,8.53843832 2.40984512,8.12846714 2.91383003,8.12846714 C3.41781493,8.12846714 3.82778611,8.53843832 3.82778611,9.04242322 C3.82778611,9.54640813 3.41781493,9.95637931 2.91383003,9.95637931 Z M2.91383003,8.7377712 C2.7457359,8.7377712 2.609178,8.87432909 2.609178,9.04242322 C2.609178,9.21051736 2.7457359,9.34707525 2.91383003,9.34707525 C3.08192416,9.34707525 3.21848206,9.21051736 3.21848206,9.04242322 C3.21848206,8.87432909 3.08192416,8.7377712 2.91383003,8.7377712 Z" id="Shape"></path>
            <path d="M14.1353781,7.59949127 L1.09752084,7.59949127 C0.492381927,7.59949127 0,7.10740683 0,6.50226795 L0,4.59254005 C0,3.98740117 0.492381927,3.49501921 1.09752084,3.49501921 L14.1353781,3.49501921 C14.7405169,3.49501924 15.2326014,3.98740117 15.2326014,4.59254005 L15.2326014,6.50226795 C15.2326014,7.10740683 14.7405169,7.59949127 14.1353781,7.59949127 Z M1.09752084,4.1043233 C0.8282727,4.1043233 0.609304055,4.32329194 0.609304055,4.59254005 L0.609304055,6.50226795 C0.609304055,6.77121857 0.8282727,6.99018721 1.09752084,6.99018721 L14.1353781,6.99018721 C14.4043287,6.99018721 14.6232973,6.77121857 14.6232973,6.50226795 L14.6232973,4.59254005 C14.6232973,4.32329191 14.4043287,4.10432326 14.1353781,4.10432326 L1.09752084,4.10432326 Z" id="Shape"></path>
            <path d="M10.3968455,5.85190728 L2.30452597,5.85190728 C2.13613432,5.85190728 1.99987395,5.71564691 1.99987395,5.54725525 C1.99987395,5.3788636 2.13613432,5.24260323 2.30452597,5.24260323 L10.3968455,5.24260323 C10.5652371,5.24260323 10.7014975,5.3788636 10.7014975,5.54725525 C10.7014975,5.71564691 10.5652371,5.85190728 10.3968455,5.85190728 Z" id="Shape"></path>
            <path d="M12.3190688,6.46121134 C11.8150839,6.46121134 11.4051128,6.05124016 11.4051128,5.54725525 C11.4051128,5.04327035 11.8150839,4.63329917 12.3190688,4.63329917 C12.8230537,4.63329917 13.2330249,5.04327035 13.2330249,5.54725525 C13.2330249,6.05124016 12.8230537,6.46121134 12.3190688,6.46121134 Z M12.3190688,5.24260323 C12.1509747,5.24260323 12.0144168,5.37916112 12.0144168,5.54725525 C12.0144168,5.71534939 12.1509747,5.85190728 12.3190688,5.85190728 C12.487163,5.85190728 12.6237209,5.71534939 12.6237209,5.54725525 C12.6237209,5.37916112 12.487163,5.24260323 12.3190688,5.24260323 Z" id="Shape"></path>
            <path d="M14.1353781,4.1043233 L1.09752084,4.1043233 C0.492381927,4.1043233 0,3.61223886 0,3.00709998 L0,1.09737208 C0,0.492233196 0.492381927,0.000148761585 1.09752084,0.000148761585 L14.1353781,0.000148761585 C14.7405169,0.000148761585 15.2326014,0.492233196 15.2326014,1.09737208 L15.2326014,3.00709998 C15.2326014,3.61223886 14.7405169,4.1043233 14.1353781,4.1043233 Z M1.09752084,0.609452816 C0.8282727,0.609452816 0.609304055,0.828421461 0.609304055,1.09737208 L0.609304055,3.00709998 C0.609304055,3.2760506 0.8282727,3.49501924 1.09752084,3.49501924 L14.1353781,3.49501924 C14.4043287,3.49501924 14.6232973,3.2760506 14.6232973,3.00709998 L14.6232973,1.09737208 C14.6232973,0.828421461 14.4043287,0.609452816 14.1353781,0.609452816 L1.09752084,0.609452816 Z" id="Shape"></path>
            <path d="M12.9283729,2.3570368 L4.83605341,2.3570368 C4.66766176,2.3570368 4.53140138,2.22077643 4.53140138,2.05238477 C4.53140138,1.88399312 4.66766176,1.74773275 4.83605341,1.74773275 L12.9283729,1.74773275 C13.0967645,1.74773275 13.2330249,1.88399312 13.2330249,2.05238477 C13.2330249,2.22077643 13.0967645,2.3570368 12.9283729,2.3570368 Z" id="Shape"></path>
            <path d="M2.91383003,2.96634086 C2.40984512,2.96634086 1.99987395,2.55636968 1.99987395,2.05238477 C1.99987395,1.54839987 2.40984512,1.13842869 2.91383003,1.13842869 C3.41781493,1.13842869 3.82778611,1.54839987 3.82778611,2.05238477 C3.82778611,2.55636968 3.41781493,2.96634086 2.91383003,2.96634086 Z M2.91383003,1.74773275 C2.7457359,1.74773275 2.609178,1.88429064 2.609178,2.05238477 C2.609178,2.22047891 2.7457359,2.3570368 2.91383003,2.3570368 C3.08192416,2.3570368 3.21848206,2.22047891 3.21848206,2.05238477 C3.21848206,1.88429064 3.08192416,1.74773275 2.91383003,1.74773275 Z" id="Shape"></path>
        </g>
    </g>
</svg>