<?xml version="1.0" encoding="UTF-8"?>
<svg width="51px" height="51px" viewBox="0 0 51 51" version="1.1" xmlns="http://www.w3.org/2000/svg" xmlns:xlink="http://www.w3.org/1999/xlink">
    <!-- Generator: Sketch 51 (57462) - http://www.bohemiancoding.com/sketch -->
    <title>ico_work</title>
    <desc>Created with Sketch.</desc>
    <defs></defs>
    <g id="Page-1" stroke="none" stroke-width="1" fill="none" fill-rule="evenodd">
        <g id="noun_Briefcase_1392590" opacity="0.79" transform="translate(9.370178, 9.655945)" stroke="#2691D5" stroke-linecap="round" stroke-linejoin="round" stroke-width="1.5">
            <g id="Group">
                <path d="M32.26872,6.82410906 L32.26872,26.5778866 C32.26872,27.4228741 31.5834062,28.1081473 30.7450785,28.1081473 L1.85627531,28.1081473 C1.0179476,28.1081473 0.332674457,27.4228741 0.332674457,26.5778866 L0.332674457,6.82410906 C0.332674457,6.48478272 0.445769907,6.1720951 0.625423135,5.91926482 C0.904852154,5.54001942 1.35061474,5.293849 1.85627531,5.293849 L30.7450782,5.293849 C31.2507388,5.293849 31.6965014,5.54001942 31.975971,5.91926482 C32.155584,6.1720951 32.26872,6.48478272 32.26872,6.82410906 Z" id="Shape"></path>
                <g transform="translate(0.000000, 7.984011)" id="Shape">
                    <path d="M0.33265982,0.629858719 C3.79905113,4.40895761 7.78440425,6.79750779 11.9028238,7.78220219"></path>
                    <path d="M20.6985422,7.78220219 C24.8169604,6.79750779 28.8023138,4.40895761 32.2687048,0.629858719"></path>
                    <path d="M20.7858282,8.30516458 C20.7858282,9.72900874 18.7766288,10.8760139 16.3006999,10.8760139 C13.824771,10.8760139 11.8155234,9.72900874 11.8155234,8.30516458 C11.8155234,8.1311128 11.8471958,7.95710926 11.9025735,7.78305748 C12.3217944,6.62026687 14.1332367,5.73431653 16.3007,5.73431653 C18.468115,5.73431653 20.279556,6.62026687 20.6988264,7.78305748 C20.7542041,7.95710926 20.7858282,8.1311128 20.7858282,8.30516458 Z"></path>
                </g>
                <path d="M21.5540652,5.29384894 L11.0473284,5.29384894 L11.0473284,2.98483175 C11.0473284,1.61317494 12.1592755,0.501227515 13.5309323,0.501227515 L19.0704613,0.501227515 C20.4421181,0.501227515 21.5540652,1.61317494 21.5540652,2.98483175 L21.5540652,5.29384894 Z" id="Shape"></path>
            </g>
        </g>
        <text id="1." opacity="0.789285714" style="mix-blend-mode: multiply;" font-family="RobotoCondensed-BoldItalic, Roboto Condensed" font-size="55" font-style="italic" font-weight="bold" letter-spacing="-6.42000008" fill="#E75582">
            <tspan x="9.3159368" y="43.7809449">1</tspan>
            <tspan x="30.1542375" y="43.7809449" letter-spacing="-2.52083349">.</tspan>
        </text>
    </g>
</svg>