<?xml version="1.0" encoding="UTF-8"?>
<svg width="25px" height="21px" viewBox="0 0 25 21" version="1.1" xmlns="http://www.w3.org/2000/svg" xmlns:xlink="http://www.w3.org/1999/xlink">
    <!-- Generator: Sketch 51 (57462) - http://www.bohemiancoding.com/sketch -->
    <title>ico_sm_teaching</title>
    <desc>Created with Sketch.</desc>
    <defs></defs>
    <g id="Page-1" stroke="none" stroke-width="1" fill="none" fill-rule="evenodd">
        <g id="noun_3D_1410926-Copy" transform="translate(4.328431, 1.137678)" fill="#000000" fill-rule="nonzero">
            <g id="Group">
                <path d="M16.4100125,4.85962214 L8.26304401,0.160972656 L0.120236719,4.86684948 L0.124616927,14.2718138 L8.27136641,18.9704633 L16.4139547,14.2643674 L16.4100125,4.85962214 Z M15.8664286,13.9167979 L15.8388333,13.9647612 L8.54534844,18.1800547 L8.54534844,9.72340547 L15.8627055,5.49431432 L15.8664286,13.9167979 Z M7.98993802,1.13425495 L8.53746406,1.13381693 L8.53724505,0.95116224 L15.5904755,5.01928073 L8.2711474,9.24946693 L0.943715885,5.02344193 L7.98971901,0.95138125 L7.98993802,1.13425495 Z M0.671923958,13.9376039 L0.667981771,5.49650443 L7.99738438,9.72384349 L7.99738438,18.1804927 L0.687254688,13.9641042 L0.671923958,13.9376039 Z" id="Shape"></path>
                <rect id="Rectangle-path" transform="translate(7.136371, 10.217329) rotate(-30.026305) translate(-7.136371, -10.217329) " x="6.8121248" y="9.94356479" width="1" height="1"></rect>
                <rect id="Rectangle-path" transform="translate(1.521448, 13.461614) rotate(-120.031265) translate(-1.521448, -13.461614) " x="1.24766991" y="13.1373514" width="1" height="1"></rect>
                <rect id="Rectangle-path" transform="translate(3.767555, 12.163412) rotate(-120.031265) translate(-3.767555, -12.163412) " x="3.49377715" y="11.8391495" width="1" height="1"></rect>
                <rect id="Rectangle-path" transform="translate(2.644403, 12.812458) rotate(-120.031265) translate(-2.644403, -12.812458) " x="2.37062497" y="12.4881957" width="1" height="1"></rect>
                <rect id="Rectangle-path" transform="translate(4.890517, 11.514377) rotate(-120.031265) translate(-4.890517, -11.514377) " x="4.61673941" y="11.1900047" width="1" height="1"></rect>
                <rect id="Rectangle-path" transform="translate(6.013494, 10.865221) rotate(-120.031265) translate(-6.013494, -10.865221) " x="5.73971638" y="10.5408489" width="1" height="1"></rect>
                <rect id="Rectangle-path" transform="translate(10.514326, 10.864682) rotate(29.972287) translate(-10.514326, -10.864682) " x="10.1900692" y="10.5909082" width="1" height="1"></rect>
                <rect id="Rectangle-path" transform="translate(11.637750, 11.511425) rotate(29.987939) translate(-11.637750, -11.511425) " x="11.3134073" y="11.2375625" width="1" height="1"></rect>
                <rect id="Rectangle-path" transform="translate(13.885176, 12.809134) rotate(29.972287) translate(-13.885176, -12.809134) " x="13.5609186" y="12.5353604" width="1" height="1"></rect>
                <rect id="Rectangle-path" transform="translate(15.008955, 13.457236) rotate(29.972287) translate(-15.008955, -13.457236) " x="14.684698" y="13.1834624" width="1" height="1"></rect>
                <rect id="Rectangle-path" transform="translate(12.761864, 12.160267) rotate(29.980112) translate(-12.761864, -12.160267) " x="12.4376191" y="11.8863939" width="1" height="1"></rect>
                <rect id="Rectangle-path" transform="translate(9.390548, 10.217183) rotate(119.946709) translate(-9.390548, -10.217183) " x="9.11678199" y="9.89293485" width="1" height="1"></rect>
                <rect id="Rectangle-path" x="7.99081406" y="1.79106719" width="1" height="1"></rect>
                <rect id="Rectangle-path" x="7.99322318" y="4.41919219" width="1" height="1"></rect>
                <rect id="Rectangle-path" x="7.99212813" y="3.10512969" width="1" height="1"></rect>
                <rect id="Rectangle-path" x="7.99431823" y="5.73325469" width="1" height="1"></rect>
                <rect id="Rectangle-path" x="7.99563229" y="7.04731719" width="1" height="1"></rect>
                <rect id="Rectangle-path" x="7.99694635" y="8.36137969" width="1" height="1"></rect>
            </g>
        </g>
    </g>
</svg>