<?xml version="1.0" encoding="UTF-8"?>
<svg width="51px" height="50px" viewBox="0 0 51 50" version="1.1" xmlns="http://www.w3.org/2000/svg" xmlns:xlink="http://www.w3.org/1999/xlink">
    <!-- Generator: Sketch 51 (57462) - http://www.bohemiancoding.com/sketch -->
    <title>ico_eduction</title>
    <desc>Created with Sketch.</desc>
    <defs></defs>
    <g id="Page-1" stroke="none" stroke-width="1" fill="none" fill-rule="evenodd">
        <rect id="Rectangle" fill="#FFFFFF" fill-rule="nonzero" x="-390" y="44" width="1584" height="583"></rect>
        <path d="M46.2128615,17.7044662 L25.870481,7.53088444 C25.3942231,7.31766502 24.8496392,7.31766502 24.3733813,7.53088444 L4.03578382,17.7044662 C3.77594267,17.7891713 3.60010144,18.031442 3.60010144,18.304741 C3.60010144,18.5780401 3.77594267,18.8203108 4.03578382,18.9050159 L7.11129538,20.4403801 L6.94867113,20.4403801 L6.94867113,37.4393974 C6.72064299,37.5698296 6.53600934,37.7644435 6.41775078,37.9990161 L5.08805838,40.6870993 C4.88137799,41.1032122 4.90426477,41.5965595 5.14858219,41.9917502 C5.39289961,42.3869409 5.82399472,42.6279229 6.28860799,42.6290242 L8.98147426,42.6290242 C9.44831439,42.6304087 9.88243399,42.3894465 10.1281921,41.9925277 C10.3739502,41.5956088 10.3961404,41.0995945 10.1868069,40.6823162 L8.86189761,37.9990161 C8.74363905,37.7644435 8.5590054,37.5698296 8.33097726,37.4393974 L8.33097726,21.0382634 L11.6791236,22.7219027 L11.6791236,31.0348717 C11.6791236,32.9193998 13.1140435,34.670002 15.7064653,35.966213 C18.2319243,37.2289425 21.5800706,37.9224871 25.1338888,37.9224871 C28.687707,37.9224871 32.0358533,37.2289425 34.5613123,35.966213 C37.1585172,34.670002 38.588654,32.9146167 38.588654,31.0348717 L38.588654,22.7219027 L46.2415599,18.8954497 C46.5014011,18.8107446 46.6772423,18.568474 46.6772423,18.2951749 C46.6772423,18.0218759 46.5014011,17.7796052 46.2415599,17.6949001 L46.2128615,17.7044662 Z M8.98147426,41.2897657 L6.28860799,41.2897657 L7.6326496,38.6016825 L8.98147426,41.2897657 Z M37.2302632,31.0348717 C37.2302632,32.3836964 36.0631951,33.7086057 33.9490798,34.7656634 C31.6101604,35.9327315 28.472469,36.5832285 25.1243227,36.5832285 C21.7761763,36.5832285 18.6384849,35.9327315 16.2995655,34.7656634 C14.1854503,33.7086057 13.0183821,32.3741303 13.0183821,31.0348717 L13.0183821,23.3819658 L24.3733813,29.0738146 C24.8496392,29.287034 25.3942231,29.287034 25.870481,29.0738146 L37.2302632,23.3915319 L37.2302632,31.0348717 Z M25.2725977,27.8636988 C25.2219091,27.8719149 25.1702282,27.8719149 25.1195396,27.8636988 C25.0703535,27.870572 25.0204506,27.870572 24.9712646,27.8636988 L5.83899977,18.2975664 L24.9712646,8.73143405 C25.0219532,8.72321803 25.0736341,8.72321803 25.1243227,8.73143405 C25.1735087,8.72456092 25.2234117,8.72456092 25.2725977,8.73143405 L44.4048625,18.2975664 L25.2725977,27.8636988 Z" id="Shape" fill="#2691D5" fill-rule="nonzero"></path>
        <text id="2." opacity="0.789285714" style="mix-blend-mode: multiply;" font-family="RobotoCondensed-BoldItalic, Roboto Condensed" font-size="55" font-style="italic" font-weight="bold" letter-spacing="-2.52083349" fill="#E75582">
            <tspan x="9.13484716" y="43.7809449">2.</tspan>
        </text>
    </g>
</svg>