<?xml version="1.0" encoding="UTF-8"?>
<svg width="51px" height="51px" viewBox="0 0 51 51" version="1.1" xmlns="http://www.w3.org/2000/svg" xmlns:xlink="http://www.w3.org/1999/xlink">
    <!-- Generator: Sketch 51 (57462) - http://www.bohemiancoding.com/sketch -->
    <title>ico_other</title>
    <desc>Created with Sketch.</desc>
    <defs></defs>
    <g id="Page-1" stroke="none" stroke-width="1" fill="none" fill-rule="evenodd">
        <g id="rocket" transform="translate(8.629276, 10.655945)" fill="#2691D5" fill-rule="nonzero">
            <path d="M29.117797,0.00307304634 C26.448344,0.158774061 21.6427825,0.616316516 19.4479445,1.93499485 C16.6275708,3.62960918 13.8444152,6.81089504 11.5990427,9.8648202 L7.12024837,10.4504063 C6.25603945,10.5634261 5.50382599,11.1305738 5.15725466,11.9302488 L4.10695571,14.3541995 C4.02364201,14.5460941 4.0332026,14.7653048 4.13222298,14.9490046 C4.23124336,15.133046 4.4091386,15.2617725 4.61469125,15.2979661 L7.66725062,15.8374565 C7.44052809,16.2212458 7.24692617,16.5562079 7.09463965,16.8245873 C6.68694884,17.5429972 6.81089504,18.4529604 7.39613964,19.038205 L7.56652299,19.2085883 L6.84264985,19.9324615 C6.11365497,20.6617978 6.11365497,21.8486766 6.84264985,22.5783544 L8.49355863,24.2296046 C8.84695896,24.5830049 9.3167936,24.7772897 9.81667581,24.7772897 C10.3162166,24.7772897 10.7860512,24.5826635 11.1394515,24.2292631 L11.8629832,23.5057315 L12.0333666,23.6761148 C12.3826695,24.0254177 12.846358,24.2176539 13.3387284,24.2176539 C13.6562765,24.2176539 13.9700687,24.1346816 14.2469843,23.9776148 C14.5153637,23.8253283 14.8499843,23.6320678 15.2337736,23.4050038 L15.773264,26.4575632 C15.8094576,26.6634573 15.9381841,26.8413525 16.1222254,26.9400315 C16.2229531,26.9943219 16.3342656,27.0216379 16.4455782,27.0216379 C16.5377696,27.0216379 16.6303024,27.0028582 16.7170306,26.9652987 L19.1409813,25.9153412 C19.9406562,25.5687699 20.507804,24.8165564 20.6208238,23.9523475 L21.2064099,19.4735532 C24.2603351,17.2278392 27.4412795,14.445025 29.1362352,11.6246514 C30.4549136,9.42981342 30.9127975,4.62425184 31.068157,1.95479892 C31.0978632,1.44125873 30.9203094,0.952985815 30.5682748,0.57943996 C30.1971191,0.18472423 29.6685552,-0.0286817658 29.117797,0.00307304634 Z M5.70391546,14.1035755 L6.41037466,12.4731536 C6.56675858,12.1119 6.90650092,11.8558128 7.29711926,11.8045953 L10.5156231,11.3839294 C9.71287513,12.5448581 9.00675737,13.6426185 8.42492727,14.5846779 L5.70391546,14.1035755 Z M10.174515,23.2629608 C9.98364466,23.4538311 9.65073131,23.4538311 9.46020243,23.2629608 L7.80929365,21.612052 C7.61227723,21.4150356 7.61227723,21.0944144 7.80929365,20.8977395 L8.53316679,20.1742078 L10.8983881,22.5394291 L10.174515,23.2629608 Z M19.2676591,23.7751352 C19.2164417,24.1657535 18.9603545,24.5054959 18.5991008,24.6618798 L16.968679,25.368339 L16.4875765,22.6473272 C17.4292945,22.0658385 18.5273964,21.3593793 19.688325,20.5566313 L19.2676591,23.7751352 Z M27.9664289,10.9209238 C24.8390921,16.1259814 16.1594435,21.321137 13.5736457,22.7897117 C13.3899458,22.8935123 13.1495653,22.8593674 13.0000104,22.7101539 L12.3475002,22.0576437 C12.3471587,22.0573023 12.3471587,22.0569608 12.3468173,22.0566194 L9.01563506,18.7254371 C9.01529361,18.7250957 9.01495216,18.7250957 9.01461071,18.7247542 L8.36210054,18.0722441 C8.21015547,17.9199576 8.17703486,17.6840159 8.28254279,17.4986088 C9.75077604,14.912811 14.946273,6.23316233 20.1513306,3.1058255 C22.1679319,1.89436234 27.1489986,1.48598863 29.2267194,1.36579837 C29.3598847,1.36579837 29.4838309,1.41940596 29.5756809,1.51637764 C29.6671894,1.61334933 29.7132851,1.74071003 29.7054317,1.87489972 C29.5862658,3.92325583 29.1778921,8.90432249 27.9664289,10.9209238 Z" id="Shape"></path>
            <path d="M22.333535,5.21120369 C21.3911341,5.21120369 20.5054139,5.57826201 19.8389043,6.24443016 C18.4638868,7.61978912 18.4638868,9.85799121 19.8389043,11.2330087 C20.5050724,11.8991769 21.3907927,12.2662352 22.3331935,12.2662352 C23.275253,12.2662352 24.1613147,11.8995183 24.8274828,11.2330087 C26.2028418,9.85764976 26.2028418,7.61978912 24.8274828,6.24408871 C24.1616561,5.57792056 23.2759359,5.21120369 22.333535,5.21120369 Z M23.8622048,10.2670478 C23.4538311,10.6754215 22.9109263,10.9000954 22.333535,10.9000954 C21.7561437,10.9000954 21.2132389,10.6754215 20.8048652,10.2670478 C19.9621676,9.42400878 19.9621676,8.05274721 20.8048652,7.20970816 C21.2132389,6.80133445 21.7561437,6.57666062 22.333535,6.57666062 C22.9109263,6.57666062 23.4538311,6.80133445 23.8622048,7.20970816 C24.7052439,8.05274721 24.7052439,9.42435023 23.8622048,10.2670478 Z" id="Shape"></path>
            <path d="M4.3664574,22.9286816 C3.35747385,22.9286816 2.40892688,23.3216901 1.69563868,24.0349783 C0.351351632,25.3789239 0.332230454,29.2861316 0.342132493,30.055759 C0.346912787,30.4258904 0.646022631,30.7250002 1.01649544,30.7301219 L1.11175988,30.7304634 C2.48643594,30.7304634 5.81556947,30.5986639 7.03727612,29.3769572 C7.75056432,28.663669 8.1435728,27.715122 8.1435728,26.7061385 C8.1435728,25.6971549 7.75056432,24.748608 7.03727612,24.0353198 C6.32398792,23.3220316 5.37544095,22.9286816 4.3664574,22.9286816 Z M6.07165667,28.4109963 C5.48333902,28.999314 3.50907747,29.2997896 1.71510131,29.3551044 C1.7659773,27.7137562 2.05757525,25.6039392 2.66125813,25.0005978 C3.11675189,24.545104 3.72214202,24.29448 4.3664574,24.29448 C5.01077278,24.29448 5.61616291,24.545104 6.07165667,25.0005978 C6.52715043,25.4560915 6.77777443,26.0614817 6.77777443,26.705797 C6.77777443,27.3501124 6.52715043,27.9555026 6.07165667,28.4109963 Z" id="Shape"></path>
        </g>
        <text id="7." opacity="0.789285714" style="mix-blend-mode: multiply;" font-family="RobotoCondensed-BoldItalic, Roboto Condensed" font-size="55" font-style="italic" font-weight="bold" letter-spacing="-9.92000008" fill="#E75582">
            <tspan x="9.83443046" y="45.7809449">7</tspan>
            <tspan x="27.1727312" y="45.7809449" letter-spacing="-2.52083349">.</tspan>
        </text>
    </g>
</svg>