<?xml version="1.0" encoding="UTF-8"?>
<svg width="51px" height="50px" viewBox="0 0 51 50" version="1.1" xmlns="http://www.w3.org/2000/svg" xmlns:xlink="http://www.w3.org/1999/xlink">
    <!-- Generator: Sketch 51 (57462) - http://www.bohemiancoding.com/sketch -->
    <title>ico_awards</title>
    <desc>Created with Sketch.</desc>
    <defs></defs>
    <g id="Page-1" stroke="none" stroke-width="1" fill="none" fill-rule="evenodd">
        <path d="M37.341114,16.1692222 C37.0359132,15.741941 36.7917525,15.3756999 36.6696721,15.0094589 C36.5475918,14.6432179 36.5475918,14.1548965 36.5475918,13.6055349 C36.5475918,12.7509725 36.4865516,11.8964101 35.9982302,11.2249682 C35.5099088,10.4924861 34.6553464,10.2483254 33.8618242,9.94312454 C33.3735028,9.76000402 32.9462216,9.63792367 32.6410207,9.39376298 C32.3358198,9.14960229 32.030619,8.78336125 31.7254181,8.41712021 C31.2370967,7.80671848 30.6877352,7.07423641 29.8331728,6.76903554 C29.0396505,6.52487485 28.1850881,6.76903554 27.3915658,7.01319623 C26.9642846,7.19631675 26.4759632,7.3183971 26.048682,7.3183971 C25.6214008,7.3183971 25.1330794,7.19631675 24.6447581,7.01319623 C23.8512358,6.76903554 23.0577136,6.52487485 22.2031511,6.76903554 C21.3485887,7.01319623 20.7992272,7.74567831 20.3109058,8.41712021 C20.0057049,8.84440142 19.700504,9.21064246 19.3953032,9.39376298 C19.0901023,9.63792367 18.6017809,9.76000402 18.1744997,9.94312454 C17.4420176,10.1872852 16.5874552,10.4924861 16.0380937,11.2249682 C15.5497723,11.8964101 15.4887321,12.8120127 15.4887321,13.6055349 C15.4887321,14.0938563 15.4887321,14.5821777 15.3666518,15.0094589 C15.2445714,15.3756999 15.0004107,15.741941 14.6952099,16.1692222 C14.2068885,16.8406641 13.7185671,17.5731462 13.7185671,18.4887487 C13.7185671,19.4043513 14.2679287,20.1368334 14.6952099,20.8082753 C15.0004107,21.2355565 15.2445714,21.6017976 15.3666518,21.9680386 C15.4887321,22.3342796 15.4887321,22.822601 15.4887321,23.3719626 C15.4887321,24.226525 15.5497723,25.0810874 16.0380937,25.7525293 C16.5264151,26.4239712 17.3199373,26.7291721 18.0524194,26.9733328 L18.0524194,42.1112957 C18.0524194,42.5996171 18.2965801,43.0268983 18.7238613,43.2100188 C18.9069818,43.271059 19.0901023,43.3320991 19.2732228,43.3320991 C19.5784237,43.3320991 19.8225844,43.2100188 20.0667451,43.0268983 L26.048682,38.0826443 L31.9695788,43.0268983 C32.3358198,43.3320991 32.8241412,43.3931393 33.2514224,43.2100188 C33.6787036,43.0268983 33.9228643,42.5996171 33.9228643,42.1112957 L33.9228643,26.9733328 C34.6553464,26.7291721 35.4488687,26.4239712 35.93719,25.7525293 C36.4255114,25.0810874 36.4865516,24.1654848 36.4865516,23.3719626 C36.4865516,22.8836412 36.4865516,22.3953198 36.6086319,21.9680386 C36.7307123,21.6017976 36.974873,21.2355565 37.2800738,20.8082753 C37.7683952,20.1368334 38.2567166,19.4043513 38.2567166,18.4887487 C38.3177568,17.6341863 37.8294354,16.8406641 37.341114,16.1692222 Z M26.4759632,36.8618408 C26.2318025,36.6787203 25.9266017,36.6787203 25.682441,36.8618408 L19.334263,42.1112957 L19.334263,27.4616542 C19.3953032,27.5226943 19.4563434,27.5226943 19.5173835,27.5837345 C19.8225844,27.8278952 20.1277853,28.1941362 20.4329861,28.5603773 C20.9213075,29.170779 21.4706691,29.9032611 22.3252315,30.2084619 C23.1187537,30.4526226 23.9733161,30.2084619 24.7668384,29.9643013 C25.2551598,29.8422209 25.7434812,29.6591004 26.1707624,29.6591004 C26.5980436,29.6591004 27.086365,29.7811807 27.5746864,29.9643013 C28.1240479,30.1474218 28.6734095,30.2695021 29.222771,30.2695021 C29.4669317,30.2695021 29.7110924,30.2084619 29.9552531,30.1474218 C30.8098155,29.9032611 31.3591771,29.170779 31.8474985,28.4993371 C32.1526993,28.0720559 32.4579002,27.7058149 32.7631011,27.5226943 C32.8241412,27.4616542 32.8851814,27.4616542 32.9462216,27.400614 L32.9462216,42.0502555 L26.4759632,36.8618408 Z M36.3644713,20.1368334 C36.0592704,20.6251548 35.6930294,21.052436 35.5099088,21.6017976 C35.3267883,22.1511591 35.3267883,22.7615609 35.3267883,23.3109224 C35.3267883,23.9823643 35.3267883,24.592766 35.0215874,25.0200472 C34.7163866,25.3862883 34.1059849,25.630449 33.4955831,25.8746097 C32.9462216,26.0577302 32.39686,26.2408507 31.9085386,26.6070917 C31.4202172,26.9122926 31.1150164,27.400614 30.7487753,27.8889354 C30.3214941,28.4382969 29.9552531,28.9266183 29.4669317,29.1097388 C29.0396505,29.2318192 28.4292488,29.0486987 27.7578069,28.8655781 C27.2084453,28.6824576 26.5980436,28.4993371 26.048682,28.4993371 C25.4382803,28.4993371 24.8889187,28.6824576 24.3395572,28.8655781 C23.7291555,29.0486987 23.1187537,29.2318192 22.6304323,29.1097388 C22.142111,28.9266183 21.7758699,28.4382969 21.3485887,27.8889354 C20.9823477,27.4616542 20.6771468,26.9733328 20.1888254,26.6070917 C19.700504,26.2408507 19.1511425,26.0577302 18.6017809,25.8746097 C17.9913792,25.630449 17.3809775,25.4473285 17.0757766,25.0200472 C16.7705757,24.6538062 16.7705757,23.9823643 16.7705757,23.3109224 C16.7705757,22.7615609 16.7705757,22.1511591 16.5874552,21.6017976 C16.4043347,21.052436 16.0991338,20.6251548 15.7328928,20.1368334 C15.3666518,19.5874719 14.9393706,19.0381103 14.9393706,18.5497889 C14.9393706,18.0614675 15.3056116,17.512106 15.7328928,16.9627444 C16.0380937,16.474423 16.4043347,16.0471418 16.5874552,15.4977803 C16.7705757,14.9484187 16.7705757,14.338017 16.7705757,13.7886554 C16.7705757,13.1172135 16.7705757,12.5068118 17.0757766,12.0795306 C17.3809775,11.7132896 17.9913792,11.4691289 18.6017809,11.2249682 C19.1511425,11.0418476 19.700504,10.8587271 20.1888254,10.4924861 C20.6771468,10.1872852 20.9823477,9.69896384 21.3485887,9.21064246 C21.7758699,8.6612809 22.142111,8.17295952 22.6304323,7.989839 C23.0577136,7.86775866 23.6681153,8.05087917 24.3395572,8.23399969 C24.8889187,8.35608004 25.4382803,8.53920056 26.048682,8.53920056 C26.6590838,8.53920056 27.2084453,8.35608004 27.7578069,8.17295952 C28.3682086,7.989839 28.9786103,7.80671848 29.4669317,7.92879883 C29.9552531,8.11191935 30.3214941,8.60024073 30.7487753,9.14960229 C31.1150164,9.5768835 31.4202172,10.0652049 31.9085386,10.4314459 C32.39686,10.797687 32.9462216,10.9808075 33.4955831,11.163928 C34.1059849,11.4080887 34.7163866,11.5912092 35.0215874,12.0184904 C35.3267883,12.3847315 35.3267883,13.0561734 35.3267883,13.7276153 C35.3267883,14.2769768 35.3267883,14.8873785 35.5099088,15.4367401 C35.6930294,15.9861017 35.9982302,16.4133829 36.3644713,16.9017042 C36.7307123,17.4510658 37.1579935,18.0004274 37.1579935,18.4887487 C37.0969533,19.0381103 36.7307123,19.5874719 36.3644713,20.1368334 Z M32.39686,15.2536196 L28.7344496,14.704258 L27.086365,11.4080887 C26.9032445,10.9808075 26.4759632,10.7366468 25.9876419,10.7366468 C25.4993205,10.7366468 25.1330794,10.9808075 24.8889187,11.4080887 L23.2408341,14.704258 L19.5784237,15.2536196 C19.1511425,15.3146598 18.7238613,15.6198606 18.6017809,16.0471418 C18.4797006,16.474423 18.6017809,16.9627444 18.9069818,17.2679453 L21.5317092,19.8316325 L20.9213075,23.4940429 C20.8602673,23.9213241 21.0433878,24.4096455 21.4096289,24.6538062 C21.7758699,24.8979669 22.2641913,24.9590071 22.6914725,24.7758866 L25.9266017,23.0667617 L29.222771,24.7758866 C29.4058915,24.8979669 29.5890121,24.8979669 29.7721326,24.8979669 C30.0162933,24.8979669 30.260454,24.8369267 30.5046147,24.6538062 C30.8708557,24.4096455 31.0539762,23.9213241 30.992936,23.4940429 L30.3825343,19.8926727 L33.0072617,17.3289855 C33.3124626,17.0237846 33.434543,16.5354632 33.3124626,16.108182 C33.2514224,15.6198606 32.8851814,15.3146598 32.39686,15.2536196 Z M29.5890121,18.9770701 C29.2838112,19.282271 29.1617308,19.648512 29.222771,20.0147531 L29.8942129,23.6161233 L26.5980436,21.9680386 C26.2318025,21.7849181 25.8045213,21.7849181 25.4993205,21.9680386 L22.2641913,23.7382036 L22.874593,20.0757932 C22.9356332,19.7095522 22.8135529,19.282271 22.508352,19.0381103 L19.8836246,16.474423 L23.5460349,15.9250615 C23.912276,15.8640213 24.278517,15.6198606 24.4616375,15.2536196 L26.048682,11.9574502 L27.6967667,15.2536196 C27.8798872,15.6198606 28.1850881,15.8640213 28.6123693,15.9250615 L32.2137395,16.474423 L29.5890121,18.9770701 Z" id="Shape" fill="#2691D5" fill-rule="nonzero"></path>
        <text id="6." opacity="0.789285714" style="mix-blend-mode: multiply;" font-family="RobotoCondensed-BoldItalic, Roboto Condensed" font-size="55" font-style="italic" font-weight="bold" letter-spacing="-2.52083349" fill="#E75582">
            <tspan x="9.98640966" y="43.7809449">6.</tspan>
        </text>
    </g>
</svg>