<?xml version="1.0" encoding="UTF-8"?>
<svg width="51px" height="50px" viewBox="0 0 51 50" version="1.1" xmlns="http://www.w3.org/2000/svg" xmlns:xlink="http://www.w3.org/1999/xlink">
    <!-- Generator: Sketch 51 (57462) - http://www.bohemiancoding.com/sketch -->
    <title>ico_work_alt</title>
    <desc>Created with Sketch.</desc>
    <defs></defs>
    <g id="Page-1" stroke="none" stroke-width="1" fill="none" fill-rule="evenodd">
        <g id="noun_Server_1901152" transform="translate(10.370178, 10.780334)" fill="#2691D5" fill-rule="nonzero">
            <path d="M25.4628403,28.6375881 L17.0605135,28.6375881 C16.7237302,28.6375881 16.4512095,28.3650674 16.4512095,28.028284 C16.4512095,27.6915007 16.7237302,27.41898 17.0605135,27.41898 L25.4628403,27.41898 C25.7996236,27.41898 26.0721443,27.6915007 26.0721443,28.028284 C26.0721443,28.3650674 25.7996235,28.6375881 25.4628403,28.6375881 Z" id="Shape"></path>
            <path d="M13.4046892,28.6375881 L5.00236247,28.6375881 C4.66557916,28.6375881 4.39305841,28.3650674 4.39305841,28.028284 C4.39305841,27.6915007 4.66557916,27.41898 5.00236247,27.41898 L13.4046892,27.41898 C13.7414725,27.41898 14.0139933,27.6915007 14.0139933,28.028284 C14.0139933,28.3650674 13.7414725,28.6375881 13.4046892,28.6375881 Z" id="Shape"></path>
            <path d="M15.2355765,30.4649052 C14.6708992,30.4649052 14.1228825,30.2715226 13.6819701,29.9079632 C13.1184829,29.4426548 12.7953852,28.7577828 12.7953852,28.028284 C12.7953852,26.684126 13.8884433,25.5910678 15.2326014,25.5910678 C15.9496047,25.5910678 16.6267414,25.9034552 17.0902647,26.4484967 C17.553788,26.9935382 17.7531208,27.7170868 17.6370913,28.4334951 C17.47822,29.4140938 16.6856487,30.231061 15.7098102,30.4190885 C15.551534,30.4500297 15.3932577,30.4649052 15.2355765,30.4649052 Z M15.2326014,26.8096759 C14.5608198,26.8096759 14.0139933,27.3565025 14.0139933,28.028284 C14.0139933,28.3924385 14.1758397,28.735172 14.4578808,28.9678261 C14.7440871,29.2040505 15.1088365,29.294494 15.4789411,29.2230912 C15.9549599,29.1308626 16.3566008,28.7167262 16.4339538,28.2383274 C16.4940512,27.8700078 16.3970623,27.5147788 16.162028,27.2380929 C15.9305639,26.9655721 15.5914005,26.8096759 15.2326014,26.8096759 Z" id="Shape"></path>
            <path d="M15.2326014,26.8096759 C14.8958181,26.8096759 14.6232973,26.5371552 14.6232973,26.2003719 L14.6232973,21.5794194 C14.6232973,21.2426361 14.8958181,20.9701154 15.2326014,20.9701154 C15.5693847,20.9701154 15.8419054,21.2426361 15.8419054,21.5794194 L15.8419054,26.2003719 C15.8419054,26.5371552 15.5693847,26.8096759 15.2326014,26.8096759 Z" id="Shape"></path>
            <path d="M28.2707561,22.1887235 L2.19504168,22.1887235 C0.984763855,22.1887235 0,21.2045546 0,19.9942769 L0,16.1748211 C0,14.9645433 0.984763855,13.9803744 2.19504168,13.9803744 L28.2707561,13.9803744 C29.4810339,13.9803744 30.4652027,14.9645433 30.4652027,16.1748211 L30.4652027,19.9942769 C30.4652027,21.2045546 29.4810339,22.1887235 28.2707561,22.1887235 Z M2.19504168,15.1989825 C1.6565454,15.1989825 1.21860811,15.6369198 1.21860811,16.1748211 L1.21860811,19.9942769 C1.21860811,20.5321781 1.6565454,20.9701154 2.19504168,20.9701154 L28.2707561,20.9701154 C28.8086573,20.9701154 29.2465946,20.5321781 29.2465946,19.9942769 L29.2465946,16.1748211 C29.2465946,15.6369198 28.8086573,15.1989825 28.2707561,15.1989825 L2.19504168,15.1989825 Z" id="Shape"></path>
            <path d="M25.8567458,18.6941505 L9.67210682,18.6941505 C9.33532351,18.6941505 9.06280277,18.4216298 9.06280277,18.0848464 C9.06280277,17.7480631 9.33532351,17.4755424 9.67210682,17.4755424 L25.8567458,17.4755424 C26.1935291,17.4755424 26.4660498,17.7480631 26.4660498,18.0848464 C26.4660498,18.4216298 26.1935291,18.6941505 25.8567458,18.6941505 Z" id="Shape"></path>
            <path d="M5.82766006,19.9127586 C4.81969025,19.9127586 3.99974789,19.0928163 3.99974789,18.0848464 C3.99974789,17.0768766 4.81969025,16.2569343 5.82766006,16.2569343 C6.83562987,16.2569343 7.65557222,17.0768766 7.65557222,18.0848464 C7.65557222,19.0928163 6.83562987,19.9127586 5.82766006,19.9127586 Z M5.82766006,17.4755424 C5.49147179,17.4755424 5.218356,17.7486582 5.218356,18.0848464 C5.218356,18.4210347 5.49147179,18.6941505 5.82766006,18.6941505 C6.16384832,18.6941505 6.43696411,18.4210347 6.43696411,18.0848464 C6.43696411,17.7486582 6.16384832,17.4755424 5.82766006,17.4755424 Z" id="Shape"></path>
            <path d="M28.2707561,15.1989825 L2.19504168,15.1989825 C0.984763855,15.1989825 0,14.2148137 0,13.0045359 L0,9.1850801 C0,7.97480234 0.984763855,6.99003842 2.19504168,6.99003842 L28.2707561,6.99003842 C29.4810339,6.99003848 30.4652027,7.97480234 30.4652027,9.1850801 L30.4652027,13.0045359 C30.4652027,14.2148137 29.4810339,15.1989825 28.2707561,15.1989825 Z M2.19504168,8.20864659 C1.6565454,8.20864659 1.21860811,8.64658388 1.21860811,9.1850801 L1.21860811,13.0045359 C1.21860811,13.5424371 1.6565454,13.9803744 2.19504168,13.9803744 L28.2707561,13.9803744 C28.8086573,13.9803744 29.2465946,13.5424371 29.2465946,13.0045359 L29.2465946,9.1850801 C29.2465946,8.64658382 28.8086573,8.20864653 28.2707561,8.20864653 L2.19504168,8.20864653 Z" id="Shape"></path>
            <path d="M20.7936909,11.7038146 L4.60905195,11.7038146 C4.27226864,11.7038146 3.99974789,11.4312938 3.99974789,11.0945105 C3.99974789,10.7577272 4.27226864,10.4852065 4.60905195,10.4852065 L20.7936909,10.4852065 C21.1304742,10.4852065 21.402995,10.7577272 21.402995,11.0945105 C21.402995,11.4312938 21.1304742,11.7038146 20.7936909,11.7038146 Z" id="Shape"></path>
            <path d="M24.6381377,12.9224227 C23.6301679,12.9224227 22.8102255,12.1024803 22.8102255,11.0945105 C22.8102255,10.0865407 23.6301679,9.26659834 24.6381377,9.26659834 C25.6461075,9.26659834 26.4660498,10.0865407 26.4660498,11.0945105 C26.4660498,12.1024803 25.6461075,12.9224227 24.6381377,12.9224227 Z M24.6381377,10.4852065 C24.3019494,10.4852065 24.0288336,10.7583222 24.0288336,11.0945105 C24.0288336,11.4306988 24.3019494,11.7038146 24.6381377,11.7038146 C24.9743259,11.7038146 25.2474417,11.4306988 25.2474417,11.0945105 C25.2474417,10.7583222 24.974326,10.4852065 24.6381377,10.4852065 Z" id="Shape"></path>
            <path d="M28.2707561,8.20864659 L2.19504168,8.20864659 C0.984763855,8.20864659 0,7.22447772 0,6.01419996 L0,2.19474416 C0,0.984466393 0.984763855,0.00029752317 2.19504168,0.00029752317 L28.2707561,0.00029752317 C29.4810339,0.00029752317 30.4652027,0.984466393 30.4652027,2.19474416 L30.4652027,6.01419996 C30.4652027,7.22447772 29.4810339,8.20864659 28.2707561,8.20864659 Z M2.19504168,1.21890563 C1.6565454,1.21890563 1.21860811,1.65684292 1.21860811,2.19474416 L1.21860811,6.01419996 C1.21860811,6.55210119 1.6565454,6.99003848 2.19504168,6.99003848 L28.2707561,6.99003848 C28.8086573,6.99003848 29.2465946,6.55210119 29.2465946,6.01419996 L29.2465946,2.19474416 C29.2465946,1.65684292 28.8086573,1.21890563 28.2707561,1.21890563 L2.19504168,1.21890563 Z" id="Shape"></path>
            <path d="M25.8567458,4.7140736 L9.67210682,4.7140736 C9.33532351,4.7140736 9.06280277,4.44155286 9.06280277,4.10476955 C9.06280277,3.76798624 9.33532351,3.49546549 9.67210682,3.49546549 L25.8567458,3.49546549 C26.1935291,3.49546549 26.4660498,3.76798624 26.4660498,4.10476955 C26.4660498,4.44155286 26.1935291,4.7140736 25.8567458,4.7140736 Z" id="Shape"></path>
            <path d="M5.82766006,5.93268171 C4.81969025,5.93268171 3.99974789,5.11273936 3.99974789,4.10476955 C3.99974789,3.09679974 4.81969025,2.27685738 5.82766006,2.27685738 C6.83562987,2.27685738 7.65557222,3.09679974 7.65557222,4.10476955 C7.65557222,5.11273936 6.83562987,5.93268171 5.82766006,5.93268171 Z M5.82766006,3.49546549 C5.49147179,3.49546549 5.218356,3.76858128 5.218356,4.10476955 C5.218356,4.44095781 5.49147179,4.7140736 5.82766006,4.7140736 C6.16384832,4.7140736 6.43696411,4.44095781 6.43696411,4.10476955 C6.43696411,3.76858128 6.16384832,3.49546549 5.82766006,3.49546549 Z" id="Shape"></path>
        </g>
        <text id="1." opacity="0.789285714" style="mix-blend-mode: multiply;" font-family="RobotoCondensed-BoldItalic, Roboto Condensed" font-size="55" font-style="italic" font-weight="bold" letter-spacing="-6.42000008" fill="#E75582">
            <tspan x="8.05552006" y="43.7809449">1</tspan>
            <tspan x="28.8938208" y="43.7809449">.</tspan>
        </text>
    </g>
</svg>