<?xml version="1.0" encoding="UTF-8"?>
<svg width="51px" height="51px" viewBox="0 0 51 51" version="1.1" xmlns="http://www.w3.org/2000/svg" xmlns:xlink="http://www.w3.org/1999/xlink">
    <!-- Generator: Sketch 51 (57462) - http://www.bohemiancoding.com/sketch -->
    <title>ico_publications</title>
    <desc>Created with Sketch.</desc>
    <defs></defs>
    <g id="Page-1" stroke="none" stroke-width="1" fill="none" fill-rule="evenodd">
        <g id="book" transform="translate(10.721680, 8.523438)" fill="#2691D5" fill-rule="nonzero">
            <path d="M27.4485669,36.6001225 L4.57501531,36.6001225 C2.05265687,36.6001225 0,34.5474656 0,32.0251072 L0,3.05306022 C0,1.36945458 1.36945458,0 3.05306022,0 L24.3985567,0 C26.0821623,0 27.4500919,1.36792958 27.4500919,3.05153521 L27.4561919,4.57501531 C29.1336975,4.57501531 30.5001021,5.94141989 30.5001021,7.62045051 L30.5001021,33.5485873 C30.5001021,35.2321929 29.1321725,36.6001225 27.4485669,36.6001225 Z M1.5250051,32.0251072 C1.5250051,33.7071878 2.89293468,35.0751174 4.57501531,35.0751174 L27.4485669,35.0751174 C28.2903697,35.0751174 28.975097,34.3903901 28.975097,33.5485873 L28.975097,7.62045051 C28.975097,6.7816977 28.2934197,6.10002042 27.4561919,6.10002042 L27.4500919,6.10002042 L27.4500919,25.9205118 C27.4500919,27.6056424 26.0806373,28.975097 24.3955066,28.975097 L4.57501531,28.975097 C2.89293468,28.975097 1.5250051,30.3430266 1.5250051,32.0251072 Z M3.05306022,1.5250051 C2.2112574,1.5250051 1.5250051,2.2112574 1.5250051,3.05306022 L1.5250051,28.6167208 C2.33478281,27.8923434 3.40381139,27.4500919 4.57501531,27.4500919 L24.3955066,27.4500919 C25.2388345,27.4500919 25.9250868,26.7638396 25.9250868,25.9205118 L25.9250868,3.05153521 C25.9250868,2.2097324 25.2403595,1.5250051 24.3985567,1.5250051 L3.05306022,1.5250051 Z" id="Shape"></path>
            <rect id="Rectangle-path" x="7.62502552" y="13.7250459" width="12.2000408" height="1.5250051"></rect>
            <rect id="Rectangle-path" x="7.62502552" y="9.15003062" width="12.2000408" height="1.5250051"></rect>
            <path d="M25.7786863,32.7876097 L4.57501531,32.7876097 L4.57501531,31.2626046 L25.7786863,31.2626046 C25.8595115,31.2626046 25.9250868,31.1970294 25.9250868,31.1162041 L25.9250868,25.6078857 L27.4500919,25.6078857 L27.4500919,31.1162041 C27.4500919,32.0388322 26.7013144,32.7876097 25.7786863,32.7876097 Z" id="Shape"></path>
        </g>
        <text id="5." opacity="0.789285714" style="mix-blend-mode: multiply;" font-family="RobotoCondensed-BoldItalic, Roboto Condensed" font-size="55" font-style="italic" font-weight="bold" letter-spacing="-2.52083349" fill="#E75582">
            <tspan x="8.98640966" y="45.7809449">5.</tspan>
        </text>
    </g>
</svg>